<mxfile host="app.diagrams.net" modified="2023-12-05T22:53:07.376Z" agent="Mozilla/5.0 (Windows NT 10.0; Win64; x64) AppleWebKit/537.36 (KHTML, like Gecko) Chrome/119.0.0.0 Safari/537.36" etag="uVtXGLHQ693k9PI7wDn9" version="22.1.5" type="device">
  <diagram id="C5RBs43oDa-KdzZeNtuy" name="Page-1">
    <mxGraphModel dx="4327" dy="4078" grid="1" gridSize="10" guides="1" tooltips="1" connect="1" arrows="1" fold="1" page="1" pageScale="1" pageWidth="827" pageHeight="1169" math="0" shadow="0">
      <root>
        <mxCell id="WIyWlLk6GJQsqaUBKTNV-0" />
        <mxCell id="WIyWlLk6GJQsqaUBKTNV-1" parent="WIyWlLk6GJQsqaUBKTNV-0" />
        <mxCell id="Q0Zz0vdiJcVVRRVcLZJk-72" style="edgeStyle=orthogonalEdgeStyle;rounded=0;orthogonalLoop=1;jettySize=auto;html=1;exitX=1;exitY=0;exitDx=0;exitDy=0;entryX=0.5;entryY=1;entryDx=0;entryDy=0;startArrow=diamondThin;startFill=1;endArrow=none;endFill=0;startSize=12;" parent="WIyWlLk6GJQsqaUBKTNV-1" target="Q0Zz0vdiJcVVRRVcLZJk-40" edge="1">
          <mxGeometry relative="1" as="geometry">
            <Array as="points">
              <mxPoint x="520" y="-1043" />
              <mxPoint x="520" y="-1094" />
              <mxPoint x="710" y="-1094" />
            </Array>
            <mxPoint x="450" y="-1043" as="sourcePoint" />
          </mxGeometry>
        </mxCell>
        <mxCell id="qlR7j_K9BmZmSB4jI-02-9" value="PozitaPunes" style="swimlane;fontStyle=0;childLayout=stackLayout;horizontal=1;startSize=26;fillColor=none;horizontalStack=0;resizeParent=1;resizeParentMax=0;resizeLast=0;collapsible=1;marginBottom=0;whiteSpace=wrap;html=1;" parent="WIyWlLk6GJQsqaUBKTNV-1" vertex="1">
          <mxGeometry x="253" y="-740" width="140" height="128" as="geometry" />
        </mxCell>
        <mxCell id="qlR7j_K9BmZmSB4jI-02-10" value="+&amp;nbsp;emriPozites: String" style="text;strokeColor=none;fillColor=none;align=left;verticalAlign=top;spacingLeft=4;spacingRight=4;overflow=hidden;rotatable=0;points=[[0,0.5],[1,0.5]];portConstraint=eastwest;whiteSpace=wrap;html=1;" parent="qlR7j_K9BmZmSB4jI-02-9" vertex="1">
          <mxGeometry y="26" width="140" height="24" as="geometry" />
        </mxCell>
        <mxCell id="qlR7j_K9BmZmSB4jI-02-11" value="+&amp;nbsp;pershkrimi: String" style="text;strokeColor=none;fillColor=none;align=left;verticalAlign=top;spacingLeft=4;spacingRight=4;overflow=hidden;rotatable=0;points=[[0,0.5],[1,0.5]];portConstraint=eastwest;whiteSpace=wrap;html=1;" parent="qlR7j_K9BmZmSB4jI-02-9" vertex="1">
          <mxGeometry y="50" width="140" height="26" as="geometry" />
        </mxCell>
        <mxCell id="qlR7j_K9BmZmSB4jI-02-12" value="+&amp;nbsp;kerkesat: String" style="text;strokeColor=none;fillColor=none;align=left;verticalAlign=top;spacingLeft=4;spacingRight=4;overflow=hidden;rotatable=0;points=[[0,0.5],[1,0.5]];portConstraint=eastwest;whiteSpace=wrap;html=1;" parent="qlR7j_K9BmZmSB4jI-02-9" vertex="1">
          <mxGeometry y="76" width="140" height="26" as="geometry" />
        </mxCell>
        <mxCell id="qlR7j_K9BmZmSB4jI-02-13" value="+ pozitaPunes: String" style="text;strokeColor=none;fillColor=none;align=left;verticalAlign=top;spacingLeft=4;spacingRight=4;overflow=hidden;rotatable=0;points=[[0,0.5],[1,0.5]];portConstraint=eastwest;whiteSpace=wrap;html=1;" parent="qlR7j_K9BmZmSB4jI-02-9" vertex="1">
          <mxGeometry y="102" width="140" height="26" as="geometry" />
        </mxCell>
        <mxCell id="Q0Zz0vdiJcVVRRVcLZJk-65" style="edgeStyle=orthogonalEdgeStyle;rounded=0;orthogonalLoop=1;jettySize=auto;html=1;exitX=0;exitY=0;exitDx=0;exitDy=0;entryX=1;entryY=0;entryDx=0;entryDy=0;endArrow=none;endFill=0;" parent="WIyWlLk6GJQsqaUBKTNV-1" source="qlR7j_K9BmZmSB4jI-02-30" edge="1">
          <mxGeometry relative="1" as="geometry">
            <Array as="points">
              <mxPoint x="159" y="-1070" />
            </Array>
            <mxPoint x="159" y="-1080" as="targetPoint" />
          </mxGeometry>
        </mxCell>
        <mxCell id="qlR7j_K9BmZmSB4jI-02-30" value="KontaktetNdihmesIT" style="swimlane;fontStyle=0;childLayout=stackLayout;horizontal=1;startSize=26;fillColor=none;horizontalStack=0;resizeParent=1;resizeParentMax=0;resizeLast=0;collapsible=1;marginBottom=0;whiteSpace=wrap;html=1;" parent="WIyWlLk6GJQsqaUBKTNV-1" vertex="1">
          <mxGeometry x="841" y="-1070" width="140" height="78" as="geometry" />
        </mxCell>
        <mxCell id="qlR7j_K9BmZmSB4jI-02-31" value="+&amp;nbsp;ndihmaTeknike: String" style="text;strokeColor=none;fillColor=none;align=left;verticalAlign=top;spacingLeft=4;spacingRight=4;overflow=hidden;rotatable=0;points=[[0,0.5],[1,0.5]];portConstraint=eastwest;whiteSpace=wrap;html=1;" parent="qlR7j_K9BmZmSB4jI-02-30" vertex="1">
          <mxGeometry y="26" width="140" height="26" as="geometry" />
        </mxCell>
        <mxCell id="qlR7j_K9BmZmSB4jI-02-32" value="+&amp;nbsp;kontakti: String" style="text;strokeColor=none;fillColor=none;align=left;verticalAlign=top;spacingLeft=4;spacingRight=4;overflow=hidden;rotatable=0;points=[[0,0.5],[1,0.5]];portConstraint=eastwest;whiteSpace=wrap;html=1;" parent="qlR7j_K9BmZmSB4jI-02-30" vertex="1">
          <mxGeometry y="52" width="140" height="26" as="geometry" />
        </mxCell>
        <mxCell id="qlR7j_K9BmZmSB4jI-02-48" value="" style="endArrow=none;html=1;rounded=0;entryX=1;entryY=0.5;entryDx=0;entryDy=0;exitX=0;exitY=0.5;exitDx=0;exitDy=0;startArrow=diamondThin;startFill=1;endFill=0;endSize=12;startSize=14;" parent="WIyWlLk6GJQsqaUBKTNV-1" edge="1">
          <mxGeometry width="50" height="50" relative="1" as="geometry">
            <mxPoint x="19" y="-989" as="sourcePoint" />
            <mxPoint x="-110" y="-989" as="targetPoint" />
          </mxGeometry>
        </mxCell>
        <mxCell id="qlR7j_K9BmZmSB4jI-02-65" value="&lt;b&gt;&lt;font style=&quot;font-size: 20px;&quot;&gt;Job Application System&lt;/font&gt;&lt;/b&gt;" style="text;html=1;strokeColor=none;fillColor=none;align=center;verticalAlign=middle;whiteSpace=wrap;rounded=0;" parent="WIyWlLk6GJQsqaUBKTNV-1" vertex="1">
          <mxGeometry x="219" y="-1450" width="262" height="30" as="geometry" />
        </mxCell>
        <mxCell id="Q0Zz0vdiJcVVRRVcLZJk-1" value="Punet" style="swimlane;fontStyle=0;align=center;verticalAlign=top;childLayout=stackLayout;horizontal=1;startSize=26;horizontalStack=0;resizeParent=1;resizeLast=0;collapsible=1;marginBottom=0;rounded=0;shadow=0;strokeWidth=1;" parent="WIyWlLk6GJQsqaUBKTNV-1" vertex="1">
          <mxGeometry x="620" y="-584" width="160" height="104" as="geometry">
            <mxRectangle x="720" y="-1324" width="160" height="26" as="alternateBounds" />
          </mxGeometry>
        </mxCell>
        <mxCell id="Q0Zz0vdiJcVVRRVcLZJk-2" value="+ emri: String" style="text;align=left;verticalAlign=top;spacingLeft=4;spacingRight=4;overflow=hidden;rotatable=0;points=[[0,0.5],[1,0.5]];portConstraint=eastwest;" parent="Q0Zz0vdiJcVVRRVcLZJk-1" vertex="1">
          <mxGeometry y="26" width="160" height="26" as="geometry" />
        </mxCell>
        <mxCell id="Q0Zz0vdiJcVVRRVcLZJk-4" value="+ numriPunetoreve: String" style="text;align=left;verticalAlign=top;spacingLeft=4;spacingRight=4;overflow=hidden;rotatable=0;points=[[0,0.5],[1,0.5]];portConstraint=eastwest;fontStyle=4" parent="Q0Zz0vdiJcVVRRVcLZJk-1" vertex="1">
          <mxGeometry y="52" width="160" height="26" as="geometry" />
        </mxCell>
        <mxCell id="Q0Zz0vdiJcVVRRVcLZJk-3" value="+ shumaTotale: int" style="text;align=left;verticalAlign=top;spacingLeft=4;spacingRight=4;overflow=hidden;rotatable=0;points=[[0,0.5],[1,0.5]];portConstraint=eastwest;rounded=0;shadow=0;html=0;" parent="Q0Zz0vdiJcVVRRVcLZJk-1" vertex="1">
          <mxGeometry y="78" width="160" height="26" as="geometry" />
        </mxCell>
        <mxCell id="Q0Zz0vdiJcVVRRVcLZJk-32" value="Kompania" style="swimlane;fontStyle=0;childLayout=stackLayout;horizontal=1;startSize=26;fillColor=none;horizontalStack=0;resizeParent=1;resizeParentMax=0;resizeLast=0;collapsible=1;marginBottom=0;whiteSpace=wrap;html=1;" parent="WIyWlLk6GJQsqaUBKTNV-1" vertex="1">
          <mxGeometry x="830" y="-842" width="160" height="212" as="geometry" />
        </mxCell>
        <mxCell id="Q0Zz0vdiJcVVRRVcLZJk-33" value="+&amp;nbsp;emri: String" style="text;strokeColor=none;fillColor=none;align=left;verticalAlign=top;spacingLeft=4;spacingRight=4;overflow=hidden;rotatable=0;points=[[0,0.5],[1,0.5]];portConstraint=eastwest;whiteSpace=wrap;html=1;" parent="Q0Zz0vdiJcVVRRVcLZJk-32" vertex="1">
          <mxGeometry y="26" width="160" height="26" as="geometry" />
        </mxCell>
        <mxCell id="Q0Zz0vdiJcVVRRVcLZJk-34" value="+ tipi: String" style="text;strokeColor=none;fillColor=none;align=left;verticalAlign=top;spacingLeft=4;spacingRight=4;overflow=hidden;rotatable=0;points=[[0,0.5],[1,0.5]];portConstraint=eastwest;whiteSpace=wrap;html=1;" parent="Q0Zz0vdiJcVVRRVcLZJk-32" vertex="1">
          <mxGeometry y="52" width="160" height="26" as="geometry" />
        </mxCell>
        <mxCell id="Q0Zz0vdiJcVVRRVcLZJk-35" value="+ staffi: String" style="text;strokeColor=none;fillColor=none;align=left;verticalAlign=top;spacingLeft=4;spacingRight=4;overflow=hidden;rotatable=0;points=[[0,0.5],[1,0.5]];portConstraint=eastwest;whiteSpace=wrap;html=1;" parent="Q0Zz0vdiJcVVRRVcLZJk-32" vertex="1">
          <mxGeometry y="78" width="160" height="26" as="geometry" />
        </mxCell>
        <mxCell id="Q0Zz0vdiJcVVRRVcLZJk-36" value="+ info: String" style="text;strokeColor=none;fillColor=none;align=left;verticalAlign=top;spacingLeft=4;spacingRight=4;overflow=hidden;rotatable=0;points=[[0,0.5],[1,0.5]];portConstraint=eastwest;whiteSpace=wrap;html=1;" parent="Q0Zz0vdiJcVVRRVcLZJk-32" vertex="1">
          <mxGeometry y="104" width="160" height="26" as="geometry" />
        </mxCell>
        <mxCell id="Q0Zz0vdiJcVVRRVcLZJk-38" value="+ puneTeHapura: String" style="text;strokeColor=none;fillColor=none;align=left;verticalAlign=top;spacingLeft=4;spacingRight=4;overflow=hidden;rotatable=0;points=[[0,0.5],[1,0.5]];portConstraint=eastwest;whiteSpace=wrap;html=1;" parent="Q0Zz0vdiJcVVRRVcLZJk-32" vertex="1">
          <mxGeometry y="130" width="160" height="26" as="geometry" />
        </mxCell>
        <mxCell id="Q0Zz0vdiJcVVRRVcLZJk-37" value="+ dataHapjes: String" style="text;strokeColor=none;fillColor=none;align=left;verticalAlign=top;spacingLeft=4;spacingRight=4;overflow=hidden;rotatable=0;points=[[0,0.5],[1,0.5]];portConstraint=eastwest;whiteSpace=wrap;html=1;" parent="Q0Zz0vdiJcVVRRVcLZJk-32" vertex="1">
          <mxGeometry y="156" width="160" height="30" as="geometry" />
        </mxCell>
        <mxCell id="Q0Zz0vdiJcVVRRVcLZJk-39" value="+ komentet: String" style="text;strokeColor=none;fillColor=none;align=left;verticalAlign=top;spacingLeft=4;spacingRight=4;overflow=hidden;rotatable=0;points=[[0,0.5],[1,0.5]];portConstraint=eastwest;whiteSpace=wrap;html=1;" parent="Q0Zz0vdiJcVVRRVcLZJk-32" vertex="1">
          <mxGeometry y="186" width="160" height="26" as="geometry" />
        </mxCell>
        <mxCell id="Q0Zz0vdiJcVVRRVcLZJk-40" value="Mesazhet&lt;br&gt;" style="swimlane;fontStyle=0;childLayout=stackLayout;horizontal=1;startSize=26;fillColor=none;horizontalStack=0;resizeParent=1;resizeParentMax=0;resizeLast=0;collapsible=1;marginBottom=0;whiteSpace=wrap;html=1;" parent="WIyWlLk6GJQsqaUBKTNV-1" vertex="1">
          <mxGeometry x="630" y="-1330" width="160" height="186" as="geometry" />
        </mxCell>
        <mxCell id="Q0Zz0vdiJcVVRRVcLZJk-41" value="+&amp;nbsp;emri: String" style="text;strokeColor=none;fillColor=none;align=left;verticalAlign=top;spacingLeft=4;spacingRight=4;overflow=hidden;rotatable=0;points=[[0,0.5],[1,0.5]];portConstraint=eastwest;whiteSpace=wrap;html=1;" parent="Q0Zz0vdiJcVVRRVcLZJk-40" vertex="1">
          <mxGeometry y="26" width="160" height="26" as="geometry" />
        </mxCell>
        <mxCell id="Q0Zz0vdiJcVVRRVcLZJk-42" value="+ tipi: String" style="text;strokeColor=none;fillColor=none;align=left;verticalAlign=top;spacingLeft=4;spacingRight=4;overflow=hidden;rotatable=0;points=[[0,0.5],[1,0.5]];portConstraint=eastwest;whiteSpace=wrap;html=1;" parent="Q0Zz0vdiJcVVRRVcLZJk-40" vertex="1">
          <mxGeometry y="52" width="160" height="26" as="geometry" />
        </mxCell>
        <mxCell id="Q0Zz0vdiJcVVRRVcLZJk-43" value="+ derguesi: String" style="text;strokeColor=none;fillColor=none;align=left;verticalAlign=top;spacingLeft=4;spacingRight=4;overflow=hidden;rotatable=0;points=[[0,0.5],[1,0.5]];portConstraint=eastwest;whiteSpace=wrap;html=1;" parent="Q0Zz0vdiJcVVRRVcLZJk-40" vertex="1">
          <mxGeometry y="78" width="160" height="26" as="geometry" />
        </mxCell>
        <mxCell id="Q0Zz0vdiJcVVRRVcLZJk-44" value="+ pranuesi: String" style="text;strokeColor=none;fillColor=none;align=left;verticalAlign=top;spacingLeft=4;spacingRight=4;overflow=hidden;rotatable=0;points=[[0,0.5],[1,0.5]];portConstraint=eastwest;whiteSpace=wrap;html=1;" parent="Q0Zz0vdiJcVVRRVcLZJk-40" vertex="1">
          <mxGeometry y="104" width="160" height="26" as="geometry" />
        </mxCell>
        <mxCell id="Q0Zz0vdiJcVVRRVcLZJk-45" value="+ dataDergimit: String" style="text;strokeColor=none;fillColor=none;align=left;verticalAlign=top;spacingLeft=4;spacingRight=4;overflow=hidden;rotatable=0;points=[[0,0.5],[1,0.5]];portConstraint=eastwest;whiteSpace=wrap;html=1;" parent="Q0Zz0vdiJcVVRRVcLZJk-40" vertex="1">
          <mxGeometry y="130" width="160" height="26" as="geometry" />
        </mxCell>
        <mxCell id="Q0Zz0vdiJcVVRRVcLZJk-46" value="+ dataHapjes: String" style="text;strokeColor=none;fillColor=none;align=left;verticalAlign=top;spacingLeft=4;spacingRight=4;overflow=hidden;rotatable=0;points=[[0,0.5],[1,0.5]];portConstraint=eastwest;whiteSpace=wrap;html=1;" parent="Q0Zz0vdiJcVVRRVcLZJk-40" vertex="1">
          <mxGeometry y="156" width="160" height="30" as="geometry" />
        </mxCell>
        <mxCell id="Q0Zz0vdiJcVVRRVcLZJk-75" style="edgeStyle=orthogonalEdgeStyle;rounded=0;orthogonalLoop=1;jettySize=auto;html=1;exitX=0.5;exitY=0;exitDx=0;exitDy=0;entryX=0.5;entryY=1;entryDx=0;entryDy=0;endArrow=none;endFill=0;" parent="WIyWlLk6GJQsqaUBKTNV-1" source="Q0Zz0vdiJcVVRRVcLZJk-48" edge="1">
          <mxGeometry relative="1" as="geometry">
            <mxPoint x="370" y="-883" as="targetPoint" />
          </mxGeometry>
        </mxCell>
        <mxCell id="Q0Zz0vdiJcVVRRVcLZJk-48" value="Njoftimi" style="swimlane;fontStyle=0;childLayout=stackLayout;horizontal=1;startSize=26;fillColor=none;horizontalStack=0;resizeParent=1;resizeParentMax=0;resizeLast=0;collapsible=1;marginBottom=0;whiteSpace=wrap;html=1;" parent="WIyWlLk6GJQsqaUBKTNV-1" vertex="1">
          <mxGeometry x="470" y="-776" width="160" height="156" as="geometry" />
        </mxCell>
        <mxCell id="Q0Zz0vdiJcVVRRVcLZJk-49" value="+&amp;nbsp;emri: String" style="text;strokeColor=none;fillColor=none;align=left;verticalAlign=top;spacingLeft=4;spacingRight=4;overflow=hidden;rotatable=0;points=[[0,0.5],[1,0.5]];portConstraint=eastwest;whiteSpace=wrap;html=1;" parent="Q0Zz0vdiJcVVRRVcLZJk-48" vertex="1">
          <mxGeometry y="26" width="160" height="26" as="geometry" />
        </mxCell>
        <mxCell id="Q0Zz0vdiJcVVRRVcLZJk-50" value="+ tipi: String" style="text;strokeColor=none;fillColor=none;align=left;verticalAlign=top;spacingLeft=4;spacingRight=4;overflow=hidden;rotatable=0;points=[[0,0.5],[1,0.5]];portConstraint=eastwest;whiteSpace=wrap;html=1;" parent="Q0Zz0vdiJcVVRRVcLZJk-48" vertex="1">
          <mxGeometry y="52" width="160" height="26" as="geometry" />
        </mxCell>
        <mxCell id="Q0Zz0vdiJcVVRRVcLZJk-51" value="+ email: String" style="text;strokeColor=none;fillColor=none;align=left;verticalAlign=top;spacingLeft=4;spacingRight=4;overflow=hidden;rotatable=0;points=[[0,0.5],[1,0.5]];portConstraint=eastwest;whiteSpace=wrap;html=1;" parent="Q0Zz0vdiJcVVRRVcLZJk-48" vertex="1">
          <mxGeometry y="78" width="160" height="26" as="geometry" />
        </mxCell>
        <mxCell id="Q0Zz0vdiJcVVRRVcLZJk-52" value="+ permbajtja: String" style="text;strokeColor=none;fillColor=none;align=left;verticalAlign=top;spacingLeft=4;spacingRight=4;overflow=hidden;rotatable=0;points=[[0,0.5],[1,0.5]];portConstraint=eastwest;whiteSpace=wrap;html=1;" parent="Q0Zz0vdiJcVVRRVcLZJk-48" vertex="1">
          <mxGeometry y="104" width="160" height="26" as="geometry" />
        </mxCell>
        <mxCell id="Q0Zz0vdiJcVVRRVcLZJk-53" value="+ dataDergimit: String" style="text;strokeColor=none;fillColor=none;align=left;verticalAlign=top;spacingLeft=4;spacingRight=4;overflow=hidden;rotatable=0;points=[[0,0.5],[1,0.5]];portConstraint=eastwest;whiteSpace=wrap;html=1;" parent="Q0Zz0vdiJcVVRRVcLZJk-48" vertex="1">
          <mxGeometry y="130" width="160" height="26" as="geometry" />
        </mxCell>
        <mxCell id="Q0Zz0vdiJcVVRRVcLZJk-56" style="edgeStyle=orthogonalEdgeStyle;rounded=0;orthogonalLoop=1;jettySize=auto;html=1;exitX=0.479;exitY=1.25;exitDx=0;exitDy=0;entryX=0;entryY=0.5;entryDx=0;entryDy=0;endArrow=diamondThin;endFill=1;strokeWidth=1;endSize=12;exitPerimeter=0;" parent="WIyWlLk6GJQsqaUBKTNV-1" source="qlR7j_K9BmZmSB4jI-02-13" target="Q0Zz0vdiJcVVRRVcLZJk-4" edge="1">
          <mxGeometry relative="1" as="geometry">
            <Array as="points">
              <mxPoint x="320" y="-519" />
            </Array>
          </mxGeometry>
        </mxCell>
        <mxCell id="Q0Zz0vdiJcVVRRVcLZJk-58" style="edgeStyle=orthogonalEdgeStyle;rounded=0;orthogonalLoop=1;jettySize=auto;html=1;exitX=1;exitY=0.5;exitDx=0;exitDy=0;entryX=0;entryY=0.5;entryDx=0;entryDy=0;endArrow=diamondThin;endFill=1;endSize=12;" parent="WIyWlLk6GJQsqaUBKTNV-1" source="Q0Zz0vdiJcVVRRVcLZJk-4" target="Q0Zz0vdiJcVVRRVcLZJk-34" edge="1">
          <mxGeometry relative="1" as="geometry" />
        </mxCell>
        <mxCell id="Q0Zz0vdiJcVVRRVcLZJk-60" style="edgeStyle=orthogonalEdgeStyle;rounded=0;orthogonalLoop=1;jettySize=auto;html=1;exitX=0.5;exitY=0;exitDx=0;exitDy=0;entryX=0.492;entryY=0.982;entryDx=0;entryDy=0;entryPerimeter=0;endArrow=none;endFill=0;" parent="WIyWlLk6GJQsqaUBKTNV-1" source="Q0Zz0vdiJcVVRRVcLZJk-32" target="qlR7j_K9BmZmSB4jI-02-32" edge="1">
          <mxGeometry relative="1" as="geometry" />
        </mxCell>
        <mxCell id="Q0Zz0vdiJcVVRRVcLZJk-63" style="edgeStyle=orthogonalEdgeStyle;rounded=0;orthogonalLoop=1;jettySize=auto;html=1;exitX=1;exitY=0.5;exitDx=0;exitDy=0;entryX=0.5;entryY=0;entryDx=0;entryDy=0;endArrow=none;endFill=0;startArrow=diamondThin;startFill=0;endSize=12;startSize=14;" parent="WIyWlLk6GJQsqaUBKTNV-1" target="qlR7j_K9BmZmSB4jI-02-9" edge="1">
          <mxGeometry relative="1" as="geometry">
            <Array as="points">
              <mxPoint x="200" y="-881" />
              <mxPoint x="200" y="-780" />
              <mxPoint x="323" y="-780" />
            </Array>
            <mxPoint x="159" y="-881" as="sourcePoint" />
          </mxGeometry>
        </mxCell>
        <mxCell id="Q0Zz0vdiJcVVRRVcLZJk-64" style="edgeStyle=orthogonalEdgeStyle;rounded=0;orthogonalLoop=1;jettySize=auto;html=1;exitX=1;exitY=0.5;exitDx=0;exitDy=0;entryX=0;entryY=0.5;entryDx=0;entryDy=0;endArrow=block;endFill=0;startSize=14;endSize=8;" parent="WIyWlLk6GJQsqaUBKTNV-1" edge="1">
          <mxGeometry relative="1" as="geometry">
            <mxPoint x="159" y="-963" as="sourcePoint" />
            <mxPoint x="290" y="-963" as="targetPoint" />
          </mxGeometry>
        </mxCell>
        <mxCell id="Q0Zz0vdiJcVVRRVcLZJk-66" style="edgeStyle=orthogonalEdgeStyle;rounded=0;orthogonalLoop=1;jettySize=auto;html=1;exitX=0;exitY=0.5;exitDx=0;exitDy=0;entryX=1;entryY=0.5;entryDx=0;entryDy=0;endArrow=block;endFill=0;endSize=8;" parent="WIyWlLk6GJQsqaUBKTNV-1" edge="1">
          <mxGeometry relative="1" as="geometry">
            <mxPoint x="570" y="-952" as="sourcePoint" />
            <mxPoint x="450" y="-952" as="targetPoint" />
          </mxGeometry>
        </mxCell>
        <mxCell id="Q0Zz0vdiJcVVRRVcLZJk-67" style="edgeStyle=orthogonalEdgeStyle;rounded=0;orthogonalLoop=1;jettySize=auto;html=1;exitX=1;exitY=0.5;exitDx=0;exitDy=0;entryX=0.25;entryY=0;entryDx=0;entryDy=0;endArrow=diamondThin;endFill=0;startSize=12;endSize=12;" parent="WIyWlLk6GJQsqaUBKTNV-1" target="Q0Zz0vdiJcVVRRVcLZJk-32" edge="1">
          <mxGeometry relative="1" as="geometry">
            <mxPoint x="740" y="-952" as="sourcePoint" />
          </mxGeometry>
        </mxCell>
        <mxCell id="Q0Zz0vdiJcVVRRVcLZJk-73" style="edgeStyle=orthogonalEdgeStyle;rounded=0;orthogonalLoop=1;jettySize=auto;html=1;exitX=0.5;exitY=0;exitDx=0;exitDy=0;entryX=0.764;entryY=0.977;entryDx=0;entryDy=0;entryPerimeter=0;endArrow=none;endFill=0;dashed=1;startArrow=open;startFill=0;startSize=10;" parent="WIyWlLk6GJQsqaUBKTNV-1" source="Q0Zz0vdiJcVVRRVcLZJk-1" edge="1">
          <mxGeometry relative="1" as="geometry">
            <mxPoint x="699.8799999999997" y="-857.598" as="targetPoint" />
          </mxGeometry>
        </mxCell>
        <mxCell id="Q0Zz0vdiJcVVRRVcLZJk-80" style="edgeStyle=orthogonalEdgeStyle;rounded=0;orthogonalLoop=1;jettySize=auto;html=1;exitX=0;exitY=0.5;exitDx=0;exitDy=0;entryX=1;entryY=0.5;entryDx=0;entryDy=0;endArrow=none;endFill=0;" parent="WIyWlLk6GJQsqaUBKTNV-1" source="Q0Zz0vdiJcVVRRVcLZJk-51" target="qlR7j_K9BmZmSB4jI-02-11" edge="1">
          <mxGeometry relative="1" as="geometry" />
        </mxCell>
        <mxCell id="Q0Zz0vdiJcVVRRVcLZJk-81" value="1..*" style="text;html=1;strokeColor=none;fillColor=none;align=center;verticalAlign=middle;whiteSpace=wrap;rounded=0;" parent="WIyWlLk6GJQsqaUBKTNV-1" vertex="1">
          <mxGeometry x="-30" y="-1020" width="60" height="30" as="geometry" />
        </mxCell>
        <mxCell id="Q0Zz0vdiJcVVRRVcLZJk-82" value="1..*" style="text;html=1;strokeColor=none;fillColor=none;align=center;verticalAlign=middle;whiteSpace=wrap;rounded=0;" parent="WIyWlLk6GJQsqaUBKTNV-1" vertex="1">
          <mxGeometry x="-30" y="-1073" width="60" height="30" as="geometry" />
        </mxCell>
        <mxCell id="Q0Zz0vdiJcVVRRVcLZJk-83" value="1..*" style="text;html=1;strokeColor=none;fillColor=none;align=center;verticalAlign=middle;whiteSpace=wrap;rounded=0;" parent="WIyWlLk6GJQsqaUBKTNV-1" vertex="1">
          <mxGeometry x="10" y="-1110" width="60" height="30" as="geometry" />
        </mxCell>
        <mxCell id="Q0Zz0vdiJcVVRRVcLZJk-84" value="1..*" style="text;html=1;strokeColor=none;fillColor=none;align=center;verticalAlign=middle;whiteSpace=wrap;rounded=0;" parent="WIyWlLk6GJQsqaUBKTNV-1" vertex="1">
          <mxGeometry x="50" y="-1110" width="60" height="30" as="geometry" />
        </mxCell>
        <mxCell id="Q0Zz0vdiJcVVRRVcLZJk-85" value="0..*" style="text;html=1;strokeColor=none;fillColor=none;align=center;verticalAlign=middle;whiteSpace=wrap;rounded=0;" parent="WIyWlLk6GJQsqaUBKTNV-1" vertex="1">
          <mxGeometry x="193" y="-1148" width="60" height="30" as="geometry" />
        </mxCell>
        <mxCell id="Q0Zz0vdiJcVVRRVcLZJk-86" value="0..*" style="text;html=1;strokeColor=none;fillColor=none;align=center;verticalAlign=middle;whiteSpace=wrap;rounded=0;" parent="WIyWlLk6GJQsqaUBKTNV-1" vertex="1">
          <mxGeometry x="50" y="-1169" width="60" height="30" as="geometry" />
        </mxCell>
        <mxCell id="Q0Zz0vdiJcVVRRVcLZJk-87" value="0..*" style="text;html=1;strokeColor=none;fillColor=none;align=center;verticalAlign=middle;whiteSpace=wrap;rounded=0;" parent="WIyWlLk6GJQsqaUBKTNV-1" vertex="1">
          <mxGeometry x="-120" y="-1020" width="60" height="30" as="geometry" />
        </mxCell>
        <mxCell id="Q0Zz0vdiJcVVRRVcLZJk-88" value="0..*" style="text;html=1;strokeColor=none;fillColor=none;align=center;verticalAlign=middle;whiteSpace=wrap;rounded=0;" parent="WIyWlLk6GJQsqaUBKTNV-1" vertex="1">
          <mxGeometry x="-132" y="-1188" width="60" height="30" as="geometry" />
        </mxCell>
        <mxCell id="Q0Zz0vdiJcVVRRVcLZJk-89" value="1..*" style="text;html=1;strokeColor=none;fillColor=none;align=center;verticalAlign=middle;whiteSpace=wrap;rounded=0;" parent="WIyWlLk6GJQsqaUBKTNV-1" vertex="1">
          <mxGeometry x="-29" y="-913" width="60" height="30" as="geometry" />
        </mxCell>
        <mxCell id="Q0Zz0vdiJcVVRRVcLZJk-90" value="1..*" style="text;html=1;strokeColor=none;fillColor=none;align=center;verticalAlign=middle;whiteSpace=wrap;rounded=0;" parent="WIyWlLk6GJQsqaUBKTNV-1" vertex="1">
          <mxGeometry x="-170" y="-859" width="60" height="30" as="geometry" />
        </mxCell>
        <mxCell id="Q0Zz0vdiJcVVRRVcLZJk-91" value="1..*" style="text;html=1;strokeColor=none;fillColor=none;align=center;verticalAlign=middle;whiteSpace=wrap;rounded=0;" parent="WIyWlLk6GJQsqaUBKTNV-1" vertex="1">
          <mxGeometry x="80" y="-760" width="60" height="30" as="geometry" />
        </mxCell>
        <mxCell id="Q0Zz0vdiJcVVRRVcLZJk-92" value="1..*" style="text;html=1;strokeColor=none;fillColor=none;align=center;verticalAlign=middle;whiteSpace=wrap;rounded=0;" parent="WIyWlLk6GJQsqaUBKTNV-1" vertex="1">
          <mxGeometry x="270" y="-770" width="60" height="30" as="geometry" />
        </mxCell>
        <mxCell id="Q0Zz0vdiJcVVRRVcLZJk-93" value="1..*" style="text;html=1;strokeColor=none;fillColor=none;align=center;verticalAlign=middle;whiteSpace=wrap;rounded=0;" parent="WIyWlLk6GJQsqaUBKTNV-1" vertex="1">
          <mxGeometry x="150" y="-913" width="60" height="30" as="geometry" />
        </mxCell>
        <mxCell id="Q0Zz0vdiJcVVRRVcLZJk-94" value="0..*" style="text;html=1;strokeColor=none;fillColor=none;align=center;verticalAlign=middle;whiteSpace=wrap;rounded=0;" parent="WIyWlLk6GJQsqaUBKTNV-1" vertex="1">
          <mxGeometry x="424" y="-720" width="60" height="30" as="geometry" />
        </mxCell>
        <mxCell id="Q0Zz0vdiJcVVRRVcLZJk-95" value="1" style="text;html=1;strokeColor=none;fillColor=none;align=center;verticalAlign=middle;whiteSpace=wrap;rounded=0;" parent="WIyWlLk6GJQsqaUBKTNV-1" vertex="1">
          <mxGeometry x="374" y="-710" width="60" height="30" as="geometry" />
        </mxCell>
        <mxCell id="Q0Zz0vdiJcVVRRVcLZJk-96" value="0..*" style="text;html=1;strokeColor=none;fillColor=none;align=center;verticalAlign=middle;whiteSpace=wrap;rounded=0;" parent="WIyWlLk6GJQsqaUBKTNV-1" vertex="1">
          <mxGeometry x="490" y="-806" width="60" height="30" as="geometry" />
        </mxCell>
        <mxCell id="Q0Zz0vdiJcVVRRVcLZJk-97" value="1..*" style="text;html=1;strokeColor=none;fillColor=none;align=center;verticalAlign=middle;whiteSpace=wrap;rounded=0;" parent="WIyWlLk6GJQsqaUBKTNV-1" vertex="1">
          <mxGeometry x="563" y="-550" width="60" height="30" as="geometry" />
        </mxCell>
        <mxCell id="Q0Zz0vdiJcVVRRVcLZJk-98" value="0..*" style="text;html=1;strokeColor=none;fillColor=none;align=center;verticalAlign=middle;whiteSpace=wrap;rounded=0;" parent="WIyWlLk6GJQsqaUBKTNV-1" vertex="1">
          <mxGeometry x="786" y="-776" width="60" height="30" as="geometry" />
        </mxCell>
        <mxCell id="Q0Zz0vdiJcVVRRVcLZJk-99" value="1..*" style="text;html=1;strokeColor=none;fillColor=none;align=center;verticalAlign=middle;whiteSpace=wrap;rounded=0;" parent="WIyWlLk6GJQsqaUBKTNV-1" vertex="1">
          <mxGeometry x="900" y="-872" width="60" height="30" as="geometry" />
        </mxCell>
        <mxCell id="Q0Zz0vdiJcVVRRVcLZJk-100" value="1" style="text;html=1;strokeColor=none;fillColor=none;align=center;verticalAlign=middle;whiteSpace=wrap;rounded=0;" parent="WIyWlLk6GJQsqaUBKTNV-1" vertex="1">
          <mxGeometry x="640" y="-857" width="60" height="30" as="geometry" />
        </mxCell>
        <mxCell id="Q0Zz0vdiJcVVRRVcLZJk-101" value="1" style="text;html=1;strokeColor=none;fillColor=none;align=center;verticalAlign=middle;whiteSpace=wrap;rounded=0;" parent="WIyWlLk6GJQsqaUBKTNV-1" vertex="1">
          <mxGeometry x="650" y="-620" width="60" height="30" as="geometry" />
        </mxCell>
        <mxCell id="Q0Zz0vdiJcVVRRVcLZJk-102" value="1..*" style="text;html=1;strokeColor=none;fillColor=none;align=center;verticalAlign=middle;whiteSpace=wrap;rounded=0;" parent="WIyWlLk6GJQsqaUBKTNV-1" vertex="1">
          <mxGeometry x="900" y="-990" width="60" height="30" as="geometry" />
        </mxCell>
        <mxCell id="Q0Zz0vdiJcVVRRVcLZJk-103" value="1" style="text;html=1;strokeColor=none;fillColor=none;align=center;verticalAlign=middle;whiteSpace=wrap;rounded=0;" parent="WIyWlLk6GJQsqaUBKTNV-1" vertex="1">
          <mxGeometry x="450" y="-1144" width="60" height="30" as="geometry" />
        </mxCell>
        <mxCell id="Q0Zz0vdiJcVVRRVcLZJk-104" value="1" style="text;html=1;strokeColor=none;fillColor=none;align=center;verticalAlign=middle;whiteSpace=wrap;rounded=0;" parent="WIyWlLk6GJQsqaUBKTNV-1" vertex="1">
          <mxGeometry x="110" y="-1103" width="60" height="30" as="geometry" />
        </mxCell>
        <mxCell id="Q0Zz0vdiJcVVRRVcLZJk-105" value="0..*" style="text;html=1;strokeColor=none;fillColor=none;align=center;verticalAlign=middle;whiteSpace=wrap;rounded=0;" parent="WIyWlLk6GJQsqaUBKTNV-1" vertex="1">
          <mxGeometry x="702" y="-1144" width="60" height="30" as="geometry" />
        </mxCell>
        <mxCell id="Q0Zz0vdiJcVVRRVcLZJk-106" value="1..*" style="text;html=1;strokeColor=none;fillColor=none;align=center;verticalAlign=middle;whiteSpace=wrap;rounded=0;" parent="WIyWlLk6GJQsqaUBKTNV-1" vertex="1">
          <mxGeometry x="731" y="-990" width="60" height="30" as="geometry" />
        </mxCell>
        <mxCell id="Q0Zz0vdiJcVVRRVcLZJk-107" value="1..*" style="text;html=1;strokeColor=none;fillColor=none;align=center;verticalAlign=middle;whiteSpace=wrap;rounded=0;" parent="WIyWlLk6GJQsqaUBKTNV-1" vertex="1">
          <mxGeometry x="820" y="-872" width="60" height="30" as="geometry" />
        </mxCell>
        <mxCell id="Q0Zz0vdiJcVVRRVcLZJk-108" value="1..*" style="text;html=1;strokeColor=none;fillColor=none;align=center;verticalAlign=middle;whiteSpace=wrap;rounded=0;" parent="WIyWlLk6GJQsqaUBKTNV-1" vertex="1">
          <mxGeometry x="444" y="-990" width="60" height="30" as="geometry" />
        </mxCell>
        <mxCell id="Q0Zz0vdiJcVVRRVcLZJk-109" value="1..*" style="text;html=1;strokeColor=none;fillColor=none;align=center;verticalAlign=middle;whiteSpace=wrap;rounded=0;" parent="WIyWlLk6GJQsqaUBKTNV-1" vertex="1">
          <mxGeometry x="520" y="-990" width="60" height="30" as="geometry" />
        </mxCell>
        <mxCell id="Q0Zz0vdiJcVVRRVcLZJk-110" value="1..*" style="text;html=1;strokeColor=none;fillColor=none;align=center;verticalAlign=middle;whiteSpace=wrap;rounded=0;" parent="WIyWlLk6GJQsqaUBKTNV-1" vertex="1">
          <mxGeometry x="240" y="-992" width="60" height="30" as="geometry" />
        </mxCell>
        <mxCell id="Q0Zz0vdiJcVVRRVcLZJk-111" value="1..*" style="text;html=1;strokeColor=none;fillColor=none;align=center;verticalAlign=middle;whiteSpace=wrap;rounded=0;" parent="WIyWlLk6GJQsqaUBKTNV-1" vertex="1">
          <mxGeometry x="1258" y="-1066" width="60" height="30" as="geometry" />
        </mxCell>
        <mxCell id="Q0Zz0vdiJcVVRRVcLZJk-112" value="0..*" style="text;html=1;strokeColor=none;fillColor=none;align=center;verticalAlign=middle;whiteSpace=wrap;rounded=0;" parent="WIyWlLk6GJQsqaUBKTNV-1" vertex="1">
          <mxGeometry x="320" y="-612" width="60" height="30" as="geometry" />
        </mxCell>
        <mxCell id="Q0Zz0vdiJcVVRRVcLZJk-113" value="1" style="text;html=1;strokeColor=none;fillColor=none;align=center;verticalAlign=middle;whiteSpace=wrap;rounded=0;" parent="WIyWlLk6GJQsqaUBKTNV-1" vertex="1">
          <mxGeometry x="210" y="-700" width="60" height="30" as="geometry" />
        </mxCell>
        <mxCell id="Q0Zz0vdiJcVVRRVcLZJk-114" value="1..*" style="text;html=1;strokeColor=none;fillColor=none;align=center;verticalAlign=middle;whiteSpace=wrap;rounded=0;" parent="WIyWlLk6GJQsqaUBKTNV-1" vertex="1">
          <mxGeometry x="771" y="-510" width="60" height="30" as="geometry" />
        </mxCell>
        <mxCell id="BWUZBZqY6qQgWq2PaEu_-0" value="ka" style="text;html=1;strokeColor=none;fillColor=none;align=center;verticalAlign=middle;whiteSpace=wrap;rounded=0;" parent="WIyWlLk6GJQsqaUBKTNV-1" vertex="1">
          <mxGeometry x="10" y="-1144" width="60" height="30" as="geometry" />
        </mxCell>
        <mxCell id="BWUZBZqY6qQgWq2PaEu_-1" value="shikon" style="text;html=1;strokeColor=none;fillColor=none;align=center;verticalAlign=middle;whiteSpace=wrap;rounded=0;" parent="WIyWlLk6GJQsqaUBKTNV-1" vertex="1">
          <mxGeometry x="-106" y="-913" width="56" height="30" as="geometry" />
        </mxCell>
        <mxCell id="BWUZBZqY6qQgWq2PaEu_-2" value="ka&amp;nbsp;" style="text;html=1;strokeColor=none;fillColor=none;align=center;verticalAlign=middle;whiteSpace=wrap;rounded=0;" parent="WIyWlLk6GJQsqaUBKTNV-1" vertex="1">
          <mxGeometry x="-60" y="-1070" width="56" height="30" as="geometry" />
        </mxCell>
        <mxCell id="BWUZBZqY6qQgWq2PaEu_-3" value="krijon" style="text;html=1;strokeColor=none;fillColor=none;align=center;verticalAlign=middle;whiteSpace=wrap;rounded=0;" parent="WIyWlLk6GJQsqaUBKTNV-1" vertex="1">
          <mxGeometry x="114" y="-1148" width="56" height="30" as="geometry" />
        </mxCell>
        <mxCell id="BWUZBZqY6qQgWq2PaEu_-4" value="krijon" style="text;html=1;strokeColor=none;fillColor=none;align=center;verticalAlign=middle;whiteSpace=wrap;rounded=0;" parent="WIyWlLk6GJQsqaUBKTNV-1" vertex="1">
          <mxGeometry x="-79" y="-1022" width="56" height="30" as="geometry" />
        </mxCell>
        <mxCell id="BWUZBZqY6qQgWq2PaEu_-5" value="eshte" style="text;html=1;strokeColor=none;fillColor=none;align=center;verticalAlign=middle;whiteSpace=wrap;rounded=0;" parent="WIyWlLk6GJQsqaUBKTNV-1" vertex="1">
          <mxGeometry x="1309" y="-1070" width="56" height="30" as="geometry" />
        </mxCell>
        <mxCell id="BWUZBZqY6qQgWq2PaEu_-6" value="eshte" style="text;html=1;strokeColor=none;fillColor=none;align=center;verticalAlign=middle;whiteSpace=wrap;rounded=0;" parent="WIyWlLk6GJQsqaUBKTNV-1" vertex="1">
          <mxGeometry x="481" y="-990" width="56" height="30" as="geometry" />
        </mxCell>
        <mxCell id="BWUZBZqY6qQgWq2PaEu_-7" value="mban" style="text;html=1;strokeColor=none;fillColor=none;align=center;verticalAlign=middle;whiteSpace=wrap;rounded=0;" parent="WIyWlLk6GJQsqaUBKTNV-1" vertex="1">
          <mxGeometry x="94" y="-796" width="56" height="30" as="geometry" />
        </mxCell>
        <mxCell id="BWUZBZqY6qQgWq2PaEu_-8" value="shikon" style="text;html=1;strokeColor=none;fillColor=none;align=center;verticalAlign=middle;whiteSpace=wrap;rounded=0;" parent="WIyWlLk6GJQsqaUBKTNV-1" vertex="1">
          <mxGeometry x="274" y="-1133" width="56" height="30" as="geometry" />
        </mxCell>
        <mxCell id="BWUZBZqY6qQgWq2PaEu_-9" value="ndervepron" style="text;html=1;strokeColor=none;fillColor=none;align=center;verticalAlign=middle;whiteSpace=wrap;rounded=0;" parent="WIyWlLk6GJQsqaUBKTNV-1" vertex="1">
          <mxGeometry x="571" y="-1130" width="56" height="30" as="geometry" />
        </mxCell>
        <mxCell id="BWUZBZqY6qQgWq2PaEu_-10" value="kerkon" style="text;html=1;strokeColor=none;fillColor=none;align=center;verticalAlign=middle;whiteSpace=wrap;rounded=0;" parent="WIyWlLk6GJQsqaUBKTNV-1" vertex="1">
          <mxGeometry x="393" y="-1100" width="56" height="30" as="geometry" />
        </mxCell>
        <mxCell id="BWUZBZqY6qQgWq2PaEu_-11" value="ndervepron" style="text;html=1;strokeColor=none;fillColor=none;align=center;verticalAlign=middle;whiteSpace=wrap;rounded=0;" parent="WIyWlLk6GJQsqaUBKTNV-1" vertex="1">
          <mxGeometry x="935" y="-924" width="56" height="30" as="geometry" />
        </mxCell>
        <mxCell id="BWUZBZqY6qQgWq2PaEu_-12" value="pjese e" style="text;html=1;strokeColor=none;fillColor=none;align=center;verticalAlign=middle;whiteSpace=wrap;rounded=0;" parent="WIyWlLk6GJQsqaUBKTNV-1" vertex="1">
          <mxGeometry x="783" y="-950" width="56" height="30" as="geometry" />
        </mxCell>
        <mxCell id="BWUZBZqY6qQgWq2PaEu_-13" value="zgjedh" style="text;html=1;strokeColor=none;fillColor=none;align=center;verticalAlign=middle;whiteSpace=wrap;rounded=0;" parent="WIyWlLk6GJQsqaUBKTNV-1" vertex="1">
          <mxGeometry x="735" y="-691" width="56" height="30" as="geometry" />
        </mxCell>
        <mxCell id="BWUZBZqY6qQgWq2PaEu_-14" value="zgjedh" style="text;html=1;strokeColor=none;fillColor=none;align=center;verticalAlign=middle;whiteSpace=wrap;rounded=0;" parent="WIyWlLk6GJQsqaUBKTNV-1" vertex="1">
          <mxGeometry x="638" y="-740" width="56" height="30" as="geometry" />
        </mxCell>
        <mxCell id="BWUZBZqY6qQgWq2PaEu_-15" value="merr" style="text;html=1;strokeColor=none;fillColor=none;align=center;verticalAlign=middle;whiteSpace=wrap;rounded=0;" parent="WIyWlLk6GJQsqaUBKTNV-1" vertex="1">
          <mxGeometry x="434" y="-862" width="56" height="30" as="geometry" />
        </mxCell>
        <mxCell id="BWUZBZqY6qQgWq2PaEu_-16" value="dergon" style="text;html=1;strokeColor=none;fillColor=none;align=center;verticalAlign=middle;whiteSpace=wrap;rounded=0;" parent="WIyWlLk6GJQsqaUBKTNV-1" vertex="1">
          <mxGeometry x="400" y="-670" width="56" height="30" as="geometry" />
        </mxCell>
        <mxCell id="BWUZBZqY6qQgWq2PaEu_-17" value="pjese e" style="text;html=1;strokeColor=none;fillColor=none;align=center;verticalAlign=middle;whiteSpace=wrap;rounded=0;" parent="WIyWlLk6GJQsqaUBKTNV-1" vertex="1">
          <mxGeometry x="180" y="-670" width="56" height="30" as="geometry" />
        </mxCell>
        <mxCell id="BWUZBZqY6qQgWq2PaEu_-18" value="1..*" style="text;html=1;strokeColor=none;fillColor=none;align=center;verticalAlign=middle;whiteSpace=wrap;rounded=0;" parent="WIyWlLk6GJQsqaUBKTNV-1" vertex="1">
          <mxGeometry x="444" y="-1046" width="60" height="30" as="geometry" />
        </mxCell>
        <mxCell id="BWUZBZqY6qQgWq2PaEu_-19" value="1..*" style="text;html=1;strokeColor=none;fillColor=none;align=center;verticalAlign=middle;whiteSpace=wrap;rounded=0;" parent="WIyWlLk6GJQsqaUBKTNV-1" vertex="1">
          <mxGeometry x="791" y="-1073" width="60" height="30" as="geometry" />
        </mxCell>
        <mxCell id="BWUZBZqY6qQgWq2PaEu_-22" value="1..*" style="text;html=1;strokeColor=none;fillColor=none;align=center;verticalAlign=middle;whiteSpace=wrap;rounded=0;" parent="WIyWlLk6GJQsqaUBKTNV-1" vertex="1">
          <mxGeometry x="149" y="-1070" width="60" height="30" as="geometry" />
        </mxCell>
        <mxCell id="BWUZBZqY6qQgWq2PaEu_-23" value="1..*" style="text;html=1;strokeColor=none;fillColor=none;align=center;verticalAlign=middle;whiteSpace=wrap;rounded=0;" parent="WIyWlLk6GJQsqaUBKTNV-1" vertex="1">
          <mxGeometry x="354" y="-883" width="60" height="30" as="geometry" />
        </mxCell>
        <mxCell id="jsOQoZ8nV0DmSQKEKL1x-0" value="aplikon" style="text;html=1;strokeColor=none;fillColor=none;align=center;verticalAlign=middle;whiteSpace=wrap;rounded=0;" parent="WIyWlLk6GJQsqaUBKTNV-1" vertex="1">
          <mxGeometry x="232" y="-806" width="56" height="30" as="geometry" />
        </mxCell>
        <mxCell id="jsOQoZ8nV0DmSQKEKL1x-1" value="ka" style="text;html=1;strokeColor=none;fillColor=none;align=center;verticalAlign=middle;whiteSpace=wrap;rounded=0;" parent="WIyWlLk6GJQsqaUBKTNV-1" vertex="1">
          <mxGeometry x="422" y="-546" width="56" height="30" as="geometry" />
        </mxCell>
        <mxCell id="jsOQoZ8nV0DmSQKEKL1x-2" value="" style="triangle;whiteSpace=wrap;html=1;" parent="WIyWlLk6GJQsqaUBKTNV-1" vertex="1">
          <mxGeometry x="460.75" y="-536" width="8" height="10" as="geometry" />
        </mxCell>
        <mxCell id="jsOQoZ8nV0DmSQKEKL1x-3" value="" style="triangle;whiteSpace=wrap;html=1;" parent="WIyWlLk6GJQsqaUBKTNV-1" vertex="1">
          <mxGeometry x="449.75" y="-660" width="8" height="10" as="geometry" />
        </mxCell>
        <mxCell id="jsOQoZ8nV0DmSQKEKL1x-4" value="" style="triangle;whiteSpace=wrap;html=1;" parent="WIyWlLk6GJQsqaUBKTNV-1" vertex="1">
          <mxGeometry x="229.75" y="-660" width="8" height="10" as="geometry" />
        </mxCell>
        <mxCell id="jsOQoZ8nV0DmSQKEKL1x-5" value="" style="triangle;whiteSpace=wrap;html=1;" parent="WIyWlLk6GJQsqaUBKTNV-1" vertex="1">
          <mxGeometry x="281.75" y="-796" width="8" height="10" as="geometry" />
        </mxCell>
        <mxCell id="jsOQoZ8nV0DmSQKEKL1x-6" value="" style="triangle;whiteSpace=wrap;html=1;" parent="WIyWlLk6GJQsqaUBKTNV-1" vertex="1">
          <mxGeometry x="479.75" y="-852" width="8" height="10" as="geometry" />
        </mxCell>
        <mxCell id="jsOQoZ8nV0DmSQKEKL1x-7" value="" style="triangle;whiteSpace=wrap;html=1;" parent="WIyWlLk6GJQsqaUBKTNV-1" vertex="1">
          <mxGeometry x="832.75" y="-939" width="8" height="10" as="geometry" />
        </mxCell>
        <mxCell id="jsOQoZ8nV0DmSQKEKL1x-8" value="" style="triangle;whiteSpace=wrap;html=1;" parent="WIyWlLk6GJQsqaUBKTNV-1" vertex="1">
          <mxGeometry x="525.75" y="-980" width="8" height="10" as="geometry" />
        </mxCell>
        <mxCell id="jsOQoZ8nV0DmSQKEKL1x-9" value="" style="triangle;whiteSpace=wrap;html=1;" parent="WIyWlLk6GJQsqaUBKTNV-1" vertex="1">
          <mxGeometry x="245.75" y="-984" width="8" height="10" as="geometry" />
        </mxCell>
        <mxCell id="jsOQoZ8nV0DmSQKEKL1x-10" value="" style="triangle;whiteSpace=wrap;html=1;" parent="WIyWlLk6GJQsqaUBKTNV-1" vertex="1">
          <mxGeometry x="443.75" y="-1089" width="8" height="10" as="geometry" />
        </mxCell>
        <mxCell id="jsOQoZ8nV0DmSQKEKL1x-11" value="" style="triangle;whiteSpace=wrap;html=1;" parent="WIyWlLk6GJQsqaUBKTNV-1" vertex="1">
          <mxGeometry x="634.75" y="-1120" width="8" height="10" as="geometry" />
        </mxCell>
        <mxCell id="jsOQoZ8nV0DmSQKEKL1x-12" value="" style="triangle;whiteSpace=wrap;html=1;" parent="WIyWlLk6GJQsqaUBKTNV-1" vertex="1">
          <mxGeometry x="322.75" y="-1123" width="8" height="10" as="geometry" />
        </mxCell>
        <mxCell id="jsOQoZ8nV0DmSQKEKL1x-13" value="" style="triangle;whiteSpace=wrap;html=1;" parent="WIyWlLk6GJQsqaUBKTNV-1" vertex="1">
          <mxGeometry x="160.75" y="-1138" width="8" height="10" as="geometry" />
        </mxCell>
        <mxCell id="jsOQoZ8nV0DmSQKEKL1x-14" value="" style="triangle;whiteSpace=wrap;html=1;flipH=1;" parent="WIyWlLk6GJQsqaUBKTNV-1" vertex="1">
          <mxGeometry x="-53.25" y="-1060" width="8" height="10" as="geometry" />
        </mxCell>
        <mxCell id="jsOQoZ8nV0DmSQKEKL1x-15" value="" style="triangle;whiteSpace=wrap;html=1;flipH=1;" parent="WIyWlLk6GJQsqaUBKTNV-1" vertex="1">
          <mxGeometry x="-78.25" y="-1013" width="8" height="10" as="geometry" />
        </mxCell>
        <mxCell id="jsOQoZ8nV0DmSQKEKL1x-16" value="" style="triangle;whiteSpace=wrap;html=1;flipH=1;" parent="WIyWlLk6GJQsqaUBKTNV-1" vertex="1">
          <mxGeometry x="-108.25" y="-903" width="8" height="10" as="geometry" />
        </mxCell>
        <mxCell id="jsOQoZ8nV0DmSQKEKL1x-17" value="" style="triangle;whiteSpace=wrap;html=1;flipH=1;direction=south;" parent="WIyWlLk6GJQsqaUBKTNV-1" vertex="1">
          <mxGeometry x="93.75" y="-785" width="10" height="8" as="geometry" />
        </mxCell>
        <mxCell id="jsOQoZ8nV0DmSQKEKL1x-18" value="" style="triangle;whiteSpace=wrap;html=1;flipH=1;direction=north;" parent="WIyWlLk6GJQsqaUBKTNV-1" vertex="1">
          <mxGeometry x="34.75" y="-1145" width="10" height="8" as="geometry" />
        </mxCell>
        <mxCell id="jsOQoZ8nV0DmSQKEKL1x-19" value="" style="triangle;whiteSpace=wrap;html=1;flipH=1;direction=south;" parent="WIyWlLk6GJQsqaUBKTNV-1" vertex="1">
          <mxGeometry x="784.75" y="-679" width="10" height="8" as="geometry" />
        </mxCell>
        <mxCell id="jsOQoZ8nV0DmSQKEKL1x-20" value="" style="triangle;whiteSpace=wrap;html=1;flipH=1;direction=south;" parent="WIyWlLk6GJQsqaUBKTNV-1" vertex="1">
          <mxGeometry x="686.75" y="-728" width="10" height="8" as="geometry" />
        </mxCell>
        <mxCell id="jsOQoZ8nV0DmSQKEKL1x-21" value="" style="triangle;whiteSpace=wrap;html=1;flipH=1;direction=south;" parent="WIyWlLk6GJQsqaUBKTNV-1" vertex="1">
          <mxGeometry x="916.75" y="-912" width="10" height="8" as="geometry" />
        </mxCell>
        <mxCell id="W6kSZl_nQK33wp-_uPpL-0" value="" style="shape=folder;fontStyle=1;spacingTop=10;tabWidth=130;tabHeight=30;tabPosition=left;html=1;whiteSpace=wrap;" vertex="1" parent="WIyWlLk6GJQsqaUBKTNV-1">
          <mxGeometry x="1160" y="-1360" width="680" height="690" as="geometry" />
        </mxCell>
        <mxCell id="W6kSZl_nQK33wp-_uPpL-1" value="UserRegistration&amp;nbsp;" style="text;html=1;strokeColor=none;fillColor=none;align=center;verticalAlign=middle;whiteSpace=wrap;rounded=0;" vertex="1" parent="WIyWlLk6GJQsqaUBKTNV-1">
          <mxGeometry x="1198" y="-1360" width="60" height="30" as="geometry" />
        </mxCell>
        <mxCell id="W6kSZl_nQK33wp-_uPpL-2" value="Perdoruesi" style="swimlane;fontStyle=0;align=center;verticalAlign=top;childLayout=stackLayout;horizontal=1;startSize=26;horizontalStack=0;resizeParent=1;resizeLast=0;collapsible=1;marginBottom=0;rounded=0;shadow=0;strokeWidth=1;" vertex="1" parent="WIyWlLk6GJQsqaUBKTNV-1">
          <mxGeometry x="1180" y="-1299" width="160" height="130" as="geometry">
            <mxRectangle x="130" y="380" width="160" height="26" as="alternateBounds" />
          </mxGeometry>
        </mxCell>
        <mxCell id="W6kSZl_nQK33wp-_uPpL-3" value="+ setEmri(): String" style="text;align=left;verticalAlign=top;spacingLeft=4;spacingRight=4;overflow=hidden;rotatable=0;points=[[0,0.5],[1,0.5]];portConstraint=eastwest;" vertex="1" parent="W6kSZl_nQK33wp-_uPpL-2">
          <mxGeometry y="26" width="160" height="26" as="geometry" />
        </mxCell>
        <mxCell id="W6kSZl_nQK33wp-_uPpL-4" value="+ setMbiemri(): String" style="text;align=left;verticalAlign=top;spacingLeft=4;spacingRight=4;overflow=hidden;rotatable=0;points=[[0,0.5],[1,0.5]];portConstraint=eastwest;rounded=0;shadow=0;html=0;" vertex="1" parent="W6kSZl_nQK33wp-_uPpL-2">
          <mxGeometry y="52" width="160" height="26" as="geometry" />
        </mxCell>
        <object label="+ setData(): String" hgh="" id="W6kSZl_nQK33wp-_uPpL-5">
          <mxCell style="text;align=left;verticalAlign=top;spacingLeft=4;spacingRight=4;overflow=hidden;rotatable=0;points=[[0,0.5],[1,0.5]];portConstraint=eastwest;fontStyle=4" vertex="1" parent="W6kSZl_nQK33wp-_uPpL-2">
            <mxGeometry y="78" width="160" height="26" as="geometry" />
          </mxCell>
        </object>
        <object label="+ setLloji(): String" hgh="" id="W6kSZl_nQK33wp-_uPpL-36">
          <mxCell style="text;align=left;verticalAlign=top;spacingLeft=4;spacingRight=4;overflow=hidden;rotatable=0;points=[[0,0.5],[1,0.5]];portConstraint=eastwest;fontStyle=4" vertex="1" parent="W6kSZl_nQK33wp-_uPpL-2">
            <mxGeometry y="104" width="160" height="26" as="geometry" />
          </mxCell>
        </object>
        <mxCell id="W6kSZl_nQK33wp-_uPpL-8" value="Rekrutuesi" style="swimlane;fontStyle=0;childLayout=stackLayout;horizontal=1;startSize=26;fillColor=none;horizontalStack=0;resizeParent=1;resizeParentMax=0;resizeLast=0;collapsible=1;marginBottom=0;whiteSpace=wrap;html=1;" vertex="1" parent="WIyWlLk6GJQsqaUBKTNV-1">
          <mxGeometry x="1400" y="-1300" width="170" height="186" as="geometry" />
        </mxCell>
        <mxCell id="W6kSZl_nQK33wp-_uPpL-9" value="+ getEmri(): Perdoruesi&lt;span style=&quot;white-space: pre;&quot;&gt;&#x9;&lt;/span&gt;" style="text;strokeColor=none;fillColor=none;align=left;verticalAlign=top;spacingLeft=4;spacingRight=4;overflow=hidden;rotatable=0;points=[[0,0.5],[1,0.5]];portConstraint=eastwest;whiteSpace=wrap;html=1;" vertex="1" parent="W6kSZl_nQK33wp-_uPpL-8">
          <mxGeometry y="26" width="170" height="26" as="geometry" />
        </mxCell>
        <mxCell id="W6kSZl_nQK33wp-_uPpL-10" value="+ getMbiemri(): Perdoruesi" style="text;strokeColor=none;fillColor=none;align=left;verticalAlign=top;spacingLeft=4;spacingRight=4;overflow=hidden;rotatable=0;points=[[0,0.5],[1,0.5]];portConstraint=eastwest;whiteSpace=wrap;html=1;" vertex="1" parent="W6kSZl_nQK33wp-_uPpL-8">
          <mxGeometry y="52" width="170" height="26" as="geometry" />
        </mxCell>
        <mxCell id="W6kSZl_nQK33wp-_uPpL-11" value="+ setKontaktet(): String" style="text;strokeColor=none;fillColor=none;align=left;verticalAlign=top;spacingLeft=4;spacingRight=4;overflow=hidden;rotatable=0;points=[[0,0.5],[1,0.5]];portConstraint=eastwest;whiteSpace=wrap;html=1;" vertex="1" parent="W6kSZl_nQK33wp-_uPpL-8">
          <mxGeometry y="78" width="170" height="26" as="geometry" />
        </mxCell>
        <mxCell id="W6kSZl_nQK33wp-_uPpL-12" value="+ setKompania(): String" style="text;strokeColor=none;fillColor=none;align=left;verticalAlign=top;spacingLeft=4;spacingRight=4;overflow=hidden;rotatable=0;points=[[0,0.5],[1,0.5]];portConstraint=eastwest;whiteSpace=wrap;html=1;" vertex="1" parent="W6kSZl_nQK33wp-_uPpL-8">
          <mxGeometry y="104" width="170" height="26" as="geometry" />
        </mxCell>
        <mxCell id="W6kSZl_nQK33wp-_uPpL-13" value="+ setNumriRekrutimeve(): String" style="text;strokeColor=none;fillColor=none;align=left;verticalAlign=top;spacingLeft=4;spacingRight=4;overflow=hidden;rotatable=0;points=[[0,0.5],[1,0.5]];portConstraint=eastwest;whiteSpace=wrap;html=1;" vertex="1" parent="W6kSZl_nQK33wp-_uPpL-8">
          <mxGeometry y="130" width="170" height="30" as="geometry" />
        </mxCell>
        <mxCell id="W6kSZl_nQK33wp-_uPpL-14" value="+ setInformation(): String" style="text;strokeColor=none;fillColor=none;align=left;verticalAlign=top;spacingLeft=4;spacingRight=4;overflow=hidden;rotatable=0;points=[[0,0.5],[1,0.5]];portConstraint=eastwest;whiteSpace=wrap;html=1;" vertex="1" parent="W6kSZl_nQK33wp-_uPpL-8">
          <mxGeometry y="160" width="170" height="26" as="geometry" />
        </mxCell>
        <mxCell id="W6kSZl_nQK33wp-_uPpL-24" style="edgeStyle=orthogonalEdgeStyle;rounded=0;orthogonalLoop=1;jettySize=auto;html=1;exitX=0.5;exitY=0;exitDx=0;exitDy=0;entryX=0.5;entryY=1;entryDx=0;entryDy=0;endArrow=block;endFill=0;endSize=12;" edge="1" parent="WIyWlLk6GJQsqaUBKTNV-1" source="W6kSZl_nQK33wp-_uPpL-15" target="W6kSZl_nQK33wp-_uPpL-2">
          <mxGeometry relative="1" as="geometry" />
        </mxCell>
        <mxCell id="W6kSZl_nQK33wp-_uPpL-15" value="Aplikanti" style="swimlane;fontStyle=0;childLayout=stackLayout;horizontal=1;startSize=26;fillColor=none;horizontalStack=0;resizeParent=1;resizeParentMax=0;resizeLast=0;collapsible=1;marginBottom=0;whiteSpace=wrap;html=1;" vertex="1" parent="WIyWlLk6GJQsqaUBKTNV-1">
          <mxGeometry x="1238" y="-992" width="162" height="240" as="geometry" />
        </mxCell>
        <mxCell id="W6kSZl_nQK33wp-_uPpL-16" value="+ getEmri(): Perdoruesi" style="text;strokeColor=none;fillColor=none;align=left;verticalAlign=top;spacingLeft=4;spacingRight=4;overflow=hidden;rotatable=0;points=[[0,0.5],[1,0.5]];portConstraint=eastwest;whiteSpace=wrap;html=1;" vertex="1" parent="W6kSZl_nQK33wp-_uPpL-15">
          <mxGeometry y="26" width="162" height="26" as="geometry" />
        </mxCell>
        <mxCell id="W6kSZl_nQK33wp-_uPpL-17" value="+ getMbiemri(): Perdoruesi" style="text;strokeColor=none;fillColor=none;align=left;verticalAlign=top;spacingLeft=4;spacingRight=4;overflow=hidden;rotatable=0;points=[[0,0.5],[1,0.5]];portConstraint=eastwest;whiteSpace=wrap;html=1;" vertex="1" parent="W6kSZl_nQK33wp-_uPpL-15">
          <mxGeometry y="52" width="162" height="26" as="geometry" />
        </mxCell>
        <mxCell id="W6kSZl_nQK33wp-_uPpL-18" value="+ setAdresa(): String" style="text;strokeColor=none;fillColor=none;align=left;verticalAlign=top;spacingLeft=4;spacingRight=4;overflow=hidden;rotatable=0;points=[[0,0.5],[1,0.5]];portConstraint=eastwest;whiteSpace=wrap;html=1;" vertex="1" parent="W6kSZl_nQK33wp-_uPpL-15">
          <mxGeometry y="78" width="162" height="26" as="geometry" />
        </mxCell>
        <mxCell id="W6kSZl_nQK33wp-_uPpL-19" value="+ setKontaktet(): String" style="text;strokeColor=none;fillColor=none;align=left;verticalAlign=top;spacingLeft=4;spacingRight=4;overflow=hidden;rotatable=0;points=[[0,0.5],[1,0.5]];portConstraint=eastwest;whiteSpace=wrap;html=1;" vertex="1" parent="W6kSZl_nQK33wp-_uPpL-15">
          <mxGeometry y="104" width="162" height="26" as="geometry" />
        </mxCell>
        <mxCell id="W6kSZl_nQK33wp-_uPpL-20" value="+ setEksperienca(): String" style="text;strokeColor=none;fillColor=none;align=left;verticalAlign=top;spacingLeft=4;spacingRight=4;overflow=hidden;rotatable=0;points=[[0,0.5],[1,0.5]];portConstraint=eastwest;whiteSpace=wrap;html=1;" vertex="1" parent="W6kSZl_nQK33wp-_uPpL-15">
          <mxGeometry y="130" width="162" height="26" as="geometry" />
        </mxCell>
        <mxCell id="W6kSZl_nQK33wp-_uPpL-21" value="+ setEdukimi(): String" style="text;strokeColor=none;fillColor=none;align=left;verticalAlign=top;spacingLeft=4;spacingRight=4;overflow=hidden;rotatable=0;points=[[0,0.5],[1,0.5]];portConstraint=eastwest;whiteSpace=wrap;html=1;" vertex="1" parent="W6kSZl_nQK33wp-_uPpL-15">
          <mxGeometry y="156" width="162" height="30" as="geometry" />
        </mxCell>
        <mxCell id="W6kSZl_nQK33wp-_uPpL-22" value="+ setShkathetesit(): String" style="text;strokeColor=none;fillColor=none;align=left;verticalAlign=top;spacingLeft=4;spacingRight=4;overflow=hidden;rotatable=0;points=[[0,0.5],[1,0.5]];portConstraint=eastwest;whiteSpace=wrap;html=1;" vertex="1" parent="W6kSZl_nQK33wp-_uPpL-15">
          <mxGeometry y="186" width="162" height="26" as="geometry" />
        </mxCell>
        <mxCell id="W6kSZl_nQK33wp-_uPpL-23" value="+ setPozita(): String" style="text;strokeColor=none;fillColor=none;align=left;verticalAlign=top;spacingLeft=4;spacingRight=4;overflow=hidden;rotatable=0;points=[[0,0.5],[1,0.5]];portConstraint=eastwest;whiteSpace=wrap;html=1;" vertex="1" parent="W6kSZl_nQK33wp-_uPpL-15">
          <mxGeometry y="212" width="162" height="28" as="geometry" />
        </mxCell>
        <mxCell id="W6kSZl_nQK33wp-_uPpL-25" style="edgeStyle=orthogonalEdgeStyle;rounded=0;orthogonalLoop=1;jettySize=auto;html=1;exitX=0;exitY=0.5;exitDx=0;exitDy=0;entryX=1;entryY=0.5;entryDx=0;entryDy=0;endArrow=block;endFill=0;startSize=12;endSize=12;" edge="1" parent="WIyWlLk6GJQsqaUBKTNV-1" source="W6kSZl_nQK33wp-_uPpL-10" target="W6kSZl_nQK33wp-_uPpL-4">
          <mxGeometry relative="1" as="geometry" />
        </mxCell>
        <mxCell id="W6kSZl_nQK33wp-_uPpL-26" value="eshte" style="text;html=1;strokeColor=none;fillColor=none;align=center;verticalAlign=middle;whiteSpace=wrap;rounded=0;" vertex="1" parent="WIyWlLk6GJQsqaUBKTNV-1">
          <mxGeometry x="1266" y="-1070" width="56" height="30" as="geometry" />
        </mxCell>
        <mxCell id="W6kSZl_nQK33wp-_uPpL-27" value="eshte" style="text;html=1;strokeColor=none;fillColor=none;align=center;verticalAlign=middle;whiteSpace=wrap;rounded=0;" vertex="1" parent="WIyWlLk6GJQsqaUBKTNV-1">
          <mxGeometry x="1344" y="-1260" width="56" height="30" as="geometry" />
        </mxCell>
        <mxCell id="W6kSZl_nQK33wp-_uPpL-35" style="rounded=0;orthogonalLoop=1;jettySize=auto;html=1;exitX=0;exitY=0.5;exitDx=0;exitDy=0;entryX=0.747;entryY=1.13;entryDx=0;entryDy=0;endSize=22;endArrow=diamondThin;endFill=0;startSize=12;entryPerimeter=0;edgeStyle=orthogonalEdgeStyle;" edge="1" parent="WIyWlLk6GJQsqaUBKTNV-1" source="W6kSZl_nQK33wp-_uPpL-31" target="W6kSZl_nQK33wp-_uPpL-36">
          <mxGeometry relative="1" as="geometry">
            <Array as="points">
              <mxPoint x="1390" y="-1032" />
              <mxPoint x="1390" y="-1100" />
              <mxPoint x="1299" y="-1100" />
            </Array>
          </mxGeometry>
        </mxCell>
        <mxCell id="W6kSZl_nQK33wp-_uPpL-62" style="rounded=0;orthogonalLoop=1;jettySize=auto;html=1;exitX=0;exitY=0;exitDx=0;exitDy=0;entryX=1;entryY=0.5;entryDx=0;entryDy=0;endArrow=none;endFill=0;" edge="1" parent="WIyWlLk6GJQsqaUBKTNV-1" source="W6kSZl_nQK33wp-_uPpL-28" target="W6kSZl_nQK33wp-_uPpL-12">
          <mxGeometry relative="1" as="geometry" />
        </mxCell>
        <mxCell id="W6kSZl_nQK33wp-_uPpL-28" value="Regjistrimi" style="swimlane;fontStyle=0;align=center;verticalAlign=top;childLayout=stackLayout;horizontal=1;startSize=26;horizontalStack=0;resizeParent=1;resizeLast=0;collapsible=1;marginBottom=0;rounded=0;shadow=0;strokeWidth=1;" vertex="1" parent="WIyWlLk6GJQsqaUBKTNV-1">
          <mxGeometry x="1625" y="-1123" width="180" height="390" as="geometry">
            <mxRectangle x="130" y="380" width="160" height="26" as="alternateBounds" />
          </mxGeometry>
        </mxCell>
        <mxCell id="W6kSZl_nQK33wp-_uPpL-29" value="+ getEmri(): Perdoruesi" style="text;align=left;verticalAlign=top;spacingLeft=4;spacingRight=4;overflow=hidden;rotatable=0;points=[[0,0.5],[1,0.5]];portConstraint=eastwest;" vertex="1" parent="W6kSZl_nQK33wp-_uPpL-28">
          <mxGeometry y="26" width="180" height="26" as="geometry" />
        </mxCell>
        <mxCell id="W6kSZl_nQK33wp-_uPpL-30" value="+ getMbiemri(): Perdoruesi" style="text;align=left;verticalAlign=top;spacingLeft=4;spacingRight=4;overflow=hidden;rotatable=0;points=[[0,0.5],[1,0.5]];portConstraint=eastwest;rounded=0;shadow=0;html=0;" vertex="1" parent="W6kSZl_nQK33wp-_uPpL-28">
          <mxGeometry y="52" width="180" height="26" as="geometry" />
        </mxCell>
        <mxCell id="W6kSZl_nQK33wp-_uPpL-31" value="+ getData: Perdoruesi" style="text;align=left;verticalAlign=top;spacingLeft=4;spacingRight=4;overflow=hidden;rotatable=0;points=[[0,0.5],[1,0.5]];portConstraint=eastwest;fontStyle=4" vertex="1" parent="W6kSZl_nQK33wp-_uPpL-28">
          <mxGeometry y="78" width="180" height="26" as="geometry" />
        </mxCell>
        <mxCell id="W6kSZl_nQK33wp-_uPpL-32" value="+ getRoli: Perdoruesi" style="text;align=left;verticalAlign=top;spacingLeft=4;spacingRight=4;overflow=hidden;rotatable=0;points=[[0,0.5],[1,0.5]];portConstraint=eastwest;" vertex="1" parent="W6kSZl_nQK33wp-_uPpL-28">
          <mxGeometry y="104" width="180" height="26" as="geometry" />
        </mxCell>
        <mxCell id="W6kSZl_nQK33wp-_uPpL-41" value="+ getLlogaria: Perdoruesi" style="text;align=left;verticalAlign=top;spacingLeft=4;spacingRight=4;overflow=hidden;rotatable=0;points=[[0,0.5],[1,0.5]];portConstraint=eastwest;" vertex="1" parent="W6kSZl_nQK33wp-_uPpL-28">
          <mxGeometry y="130" width="180" height="26" as="geometry" />
        </mxCell>
        <mxCell id="W6kSZl_nQK33wp-_uPpL-42" value="+ getKompania: Rekrutuesi" style="text;align=left;verticalAlign=top;spacingLeft=4;spacingRight=4;overflow=hidden;rotatable=0;points=[[0,0.5],[1,0.5]];portConstraint=eastwest;" vertex="1" parent="W6kSZl_nQK33wp-_uPpL-28">
          <mxGeometry y="156" width="180" height="26" as="geometry" />
        </mxCell>
        <mxCell id="W6kSZl_nQK33wp-_uPpL-43" value="+ getKontaktet(): Rekrutuesi" style="text;align=left;verticalAlign=top;spacingLeft=4;spacingRight=4;overflow=hidden;rotatable=0;points=[[0,0.5],[1,0.5]];portConstraint=eastwest;" vertex="1" parent="W6kSZl_nQK33wp-_uPpL-28">
          <mxGeometry y="182" width="180" height="26" as="geometry" />
        </mxCell>
        <mxCell id="W6kSZl_nQK33wp-_uPpL-44" value="+ getNumriRek(): Rekrutuesi" style="text;align=left;verticalAlign=top;spacingLeft=4;spacingRight=4;overflow=hidden;rotatable=0;points=[[0,0.5],[1,0.5]];portConstraint=eastwest;" vertex="1" parent="W6kSZl_nQK33wp-_uPpL-28">
          <mxGeometry y="208" width="180" height="26" as="geometry" />
        </mxCell>
        <mxCell id="W6kSZl_nQK33wp-_uPpL-45" value="+ getInformation(): Rekrutuesi" style="text;align=left;verticalAlign=top;spacingLeft=4;spacingRight=4;overflow=hidden;rotatable=0;points=[[0,0.5],[1,0.5]];portConstraint=eastwest;" vertex="1" parent="W6kSZl_nQK33wp-_uPpL-28">
          <mxGeometry y="234" width="180" height="26" as="geometry" />
        </mxCell>
        <mxCell id="W6kSZl_nQK33wp-_uPpL-46" value="+ getEksperienca(): Aplikanti" style="text;align=left;verticalAlign=top;spacingLeft=4;spacingRight=4;overflow=hidden;rotatable=0;points=[[0,0.5],[1,0.5]];portConstraint=eastwest;" vertex="1" parent="W6kSZl_nQK33wp-_uPpL-28">
          <mxGeometry y="260" width="180" height="26" as="geometry" />
        </mxCell>
        <mxCell id="W6kSZl_nQK33wp-_uPpL-47" value="+ getEdukimi(): Aplikanti" style="text;align=left;verticalAlign=top;spacingLeft=4;spacingRight=4;overflow=hidden;rotatable=0;points=[[0,0.5],[1,0.5]];portConstraint=eastwest;" vertex="1" parent="W6kSZl_nQK33wp-_uPpL-28">
          <mxGeometry y="286" width="180" height="26" as="geometry" />
        </mxCell>
        <mxCell id="W6kSZl_nQK33wp-_uPpL-48" value="+ getShkathtesit(): Aplikanti" style="text;align=left;verticalAlign=top;spacingLeft=4;spacingRight=4;overflow=hidden;rotatable=0;points=[[0,0.5],[1,0.5]];portConstraint=eastwest;" vertex="1" parent="W6kSZl_nQK33wp-_uPpL-28">
          <mxGeometry y="312" width="180" height="26" as="geometry" />
        </mxCell>
        <mxCell id="W6kSZl_nQK33wp-_uPpL-49" value="+ getPozita(): Aplikanti" style="text;align=left;verticalAlign=top;spacingLeft=4;spacingRight=4;overflow=hidden;rotatable=0;points=[[0,0.5],[1,0.5]];portConstraint=eastwest;" vertex="1" parent="W6kSZl_nQK33wp-_uPpL-28">
          <mxGeometry y="338" width="180" height="26" as="geometry" />
        </mxCell>
        <mxCell id="W6kSZl_nQK33wp-_uPpL-50" value="+ getAuthentication(): Authentication" style="text;align=left;verticalAlign=top;spacingLeft=4;spacingRight=4;overflow=hidden;rotatable=0;points=[[0,0.5],[1,0.5]];portConstraint=eastwest;" vertex="1" parent="W6kSZl_nQK33wp-_uPpL-28">
          <mxGeometry y="364" width="180" height="26" as="geometry" />
        </mxCell>
        <mxCell id="W6kSZl_nQK33wp-_uPpL-51" value="bën" style="text;html=1;strokeColor=none;fillColor=none;align=center;verticalAlign=middle;whiteSpace=wrap;rounded=0;" vertex="1" parent="WIyWlLk6GJQsqaUBKTNV-1">
          <mxGeometry x="1410" y="-1066" width="56" height="30" as="geometry" />
        </mxCell>
        <mxCell id="W6kSZl_nQK33wp-_uPpL-54" value="Authenticator" style="swimlane;fontStyle=0;childLayout=stackLayout;horizontal=1;startSize=26;fillColor=none;horizontalStack=0;resizeParent=1;resizeParentMax=0;resizeLast=0;collapsible=1;marginBottom=0;whiteSpace=wrap;html=1;" vertex="1" parent="WIyWlLk6GJQsqaUBKTNV-1">
          <mxGeometry x="1625" y="-1299" width="170" height="78" as="geometry" />
        </mxCell>
        <mxCell id="W6kSZl_nQK33wp-_uPpL-55" value="# setKey(): String" style="text;strokeColor=none;fillColor=none;align=left;verticalAlign=top;spacingLeft=4;spacingRight=4;overflow=hidden;rotatable=0;points=[[0,0.5],[1,0.5]];portConstraint=eastwest;whiteSpace=wrap;html=1;" vertex="1" parent="W6kSZl_nQK33wp-_uPpL-54">
          <mxGeometry y="26" width="170" height="26" as="geometry" />
        </mxCell>
        <mxCell id="W6kSZl_nQK33wp-_uPpL-61" value="# setToken(): String" style="text;strokeColor=none;fillColor=none;align=left;verticalAlign=top;spacingLeft=4;spacingRight=4;overflow=hidden;rotatable=0;points=[[0,0.5],[1,0.5]];portConstraint=eastwest;whiteSpace=wrap;html=1;" vertex="1" parent="W6kSZl_nQK33wp-_uPpL-54">
          <mxGeometry y="52" width="170" height="26" as="geometry" />
        </mxCell>
        <mxCell id="W6kSZl_nQK33wp-_uPpL-63" style="rounded=0;orthogonalLoop=1;jettySize=auto;html=1;exitX=0.5;exitY=0;exitDx=0;exitDy=0;entryX=0.524;entryY=1.077;entryDx=0;entryDy=0;entryPerimeter=0;startArrow=diamondThin;startFill=0;startSize=22;" edge="1" parent="WIyWlLk6GJQsqaUBKTNV-1" source="W6kSZl_nQK33wp-_uPpL-28" target="W6kSZl_nQK33wp-_uPpL-61">
          <mxGeometry relative="1" as="geometry" />
        </mxCell>
        <mxCell id="W6kSZl_nQK33wp-_uPpL-64" value="1..*" style="text;html=1;strokeColor=none;fillColor=none;align=center;verticalAlign=middle;whiteSpace=wrap;rounded=0;" vertex="1" parent="WIyWlLk6GJQsqaUBKTNV-1">
          <mxGeometry x="1258" y="-346" width="60" height="30" as="geometry" />
        </mxCell>
        <mxCell id="W6kSZl_nQK33wp-_uPpL-65" value="eshte" style="text;html=1;strokeColor=none;fillColor=none;align=center;verticalAlign=middle;whiteSpace=wrap;rounded=0;" vertex="1" parent="WIyWlLk6GJQsqaUBKTNV-1">
          <mxGeometry x="1309" y="-350" width="56" height="30" as="geometry" />
        </mxCell>
        <mxCell id="W6kSZl_nQK33wp-_uPpL-66" value="" style="shape=folder;fontStyle=1;spacingTop=10;tabWidth=130;tabHeight=30;tabPosition=left;html=1;whiteSpace=wrap;" vertex="1" parent="WIyWlLk6GJQsqaUBKTNV-1">
          <mxGeometry x="1160" y="-640" width="680" height="650" as="geometry" />
        </mxCell>
        <mxCell id="W6kSZl_nQK33wp-_uPpL-67" value="UserManagement" style="text;html=1;strokeColor=none;fillColor=none;align=center;verticalAlign=middle;whiteSpace=wrap;rounded=0;" vertex="1" parent="WIyWlLk6GJQsqaUBKTNV-1">
          <mxGeometry x="1198" y="-640" width="60" height="30" as="geometry" />
        </mxCell>
        <mxCell id="W6kSZl_nQK33wp-_uPpL-68" value="&lt;&lt;interface&gt;&gt;&#xa;ShfaqPerdoruesin" style="swimlane;fontStyle=0;align=center;verticalAlign=top;childLayout=stackLayout;horizontal=1;startSize=40;horizontalStack=0;resizeParent=1;resizeLast=0;collapsible=1;marginBottom=0;rounded=0;shadow=0;strokeWidth=1;" vertex="1" parent="WIyWlLk6GJQsqaUBKTNV-1">
          <mxGeometry x="1180" y="-580" width="180" height="92" as="geometry">
            <mxRectangle x="130" y="380" width="160" height="26" as="alternateBounds" />
          </mxGeometry>
        </mxCell>
        <mxCell id="W6kSZl_nQK33wp-_uPpL-69" value="+ getPerdoruesi(): Perdoruesi" style="text;align=left;verticalAlign=top;spacingLeft=4;spacingRight=4;overflow=hidden;rotatable=0;points=[[0,0.5],[1,0.5]];portConstraint=eastwest;" vertex="1" parent="W6kSZl_nQK33wp-_uPpL-68">
          <mxGeometry y="40" width="180" height="26" as="geometry" />
        </mxCell>
        <mxCell id="W6kSZl_nQK33wp-_uPpL-132" value="+ setPerdoruesi(): Perdoruesi" style="text;align=left;verticalAlign=top;spacingLeft=4;spacingRight=4;overflow=hidden;rotatable=0;points=[[0,0.5],[1,0.5]];portConstraint=eastwest;" vertex="1" parent="W6kSZl_nQK33wp-_uPpL-68">
          <mxGeometry y="66" width="180" height="26" as="geometry" />
        </mxCell>
        <mxCell id="W6kSZl_nQK33wp-_uPpL-73" value="RoliSherbim" style="swimlane;fontStyle=0;childLayout=stackLayout;horizontal=1;startSize=26;fillColor=none;horizontalStack=0;resizeParent=1;resizeParentMax=0;resizeLast=0;collapsible=1;marginBottom=0;whiteSpace=wrap;html=1;" vertex="1" parent="WIyWlLk6GJQsqaUBKTNV-1">
          <mxGeometry x="1470" y="-580" width="190" height="130" as="geometry" />
        </mxCell>
        <mxCell id="W6kSZl_nQK33wp-_uPpL-74" value="+ getRoli(): ShfaqPerdoruesi&lt;span style=&quot;white-space: pre;&quot;&gt;&#x9;&lt;/span&gt;" style="text;strokeColor=none;fillColor=none;align=left;verticalAlign=top;spacingLeft=4;spacingRight=4;overflow=hidden;rotatable=0;points=[[0,0.5],[1,0.5]];portConstraint=eastwest;whiteSpace=wrap;html=1;" vertex="1" parent="W6kSZl_nQK33wp-_uPpL-73">
          <mxGeometry y="26" width="190" height="26" as="geometry" />
        </mxCell>
        <mxCell id="W6kSZl_nQK33wp-_uPpL-75" value="+ setRoli(): ShfaqPerdoruesi" style="text;strokeColor=none;fillColor=none;align=left;verticalAlign=top;spacingLeft=4;spacingRight=4;overflow=hidden;rotatable=0;points=[[0,0.5],[1,0.5]];portConstraint=eastwest;whiteSpace=wrap;html=1;" vertex="1" parent="W6kSZl_nQK33wp-_uPpL-73">
          <mxGeometry y="52" width="190" height="26" as="geometry" />
        </mxCell>
        <mxCell id="W6kSZl_nQK33wp-_uPpL-129" value="+ setRoliTypes(): String" style="text;strokeColor=none;fillColor=none;align=left;verticalAlign=top;spacingLeft=4;spacingRight=4;overflow=hidden;rotatable=0;points=[[0,0.5],[1,0.5]];portConstraint=eastwest;whiteSpace=wrap;html=1;" vertex="1" parent="W6kSZl_nQK33wp-_uPpL-73">
          <mxGeometry y="78" width="190" height="26" as="geometry" />
        </mxCell>
        <mxCell id="W6kSZl_nQK33wp-_uPpL-147" value="+ getRoliType(): Lejimi" style="text;strokeColor=none;fillColor=none;align=left;verticalAlign=top;spacingLeft=4;spacingRight=4;overflow=hidden;rotatable=0;points=[[0,0.5],[1,0.5]];portConstraint=eastwest;whiteSpace=wrap;html=1;" vertex="1" parent="W6kSZl_nQK33wp-_uPpL-73">
          <mxGeometry y="104" width="190" height="26" as="geometry" />
        </mxCell>
        <mxCell id="W6kSZl_nQK33wp-_uPpL-81" value="LejimiSherbim" style="swimlane;fontStyle=0;childLayout=stackLayout;horizontal=1;startSize=26;fillColor=none;horizontalStack=0;resizeParent=1;resizeParentMax=0;resizeLast=0;collapsible=1;marginBottom=0;whiteSpace=wrap;html=1;" vertex="1" parent="WIyWlLk6GJQsqaUBKTNV-1">
          <mxGeometry x="1180" y="-220" width="162" height="182" as="geometry" />
        </mxCell>
        <mxCell id="W6kSZl_nQK33wp-_uPpL-82" value="+ getRregulli(): Lejimi" style="text;strokeColor=none;fillColor=none;align=left;verticalAlign=top;spacingLeft=4;spacingRight=4;overflow=hidden;rotatable=0;points=[[0,0.5],[1,0.5]];portConstraint=eastwest;whiteSpace=wrap;html=1;" vertex="1" parent="W6kSZl_nQK33wp-_uPpL-81">
          <mxGeometry y="26" width="162" height="26" as="geometry" />
        </mxCell>
        <mxCell id="W6kSZl_nQK33wp-_uPpL-133" value="+ editRregulli(): Lejimi" style="text;strokeColor=none;fillColor=none;align=left;verticalAlign=top;spacingLeft=4;spacingRight=4;overflow=hidden;rotatable=0;points=[[0,0.5],[1,0.5]];portConstraint=eastwest;whiteSpace=wrap;html=1;" vertex="1" parent="W6kSZl_nQK33wp-_uPpL-81">
          <mxGeometry y="52" width="162" height="26" as="geometry" />
        </mxCell>
        <mxCell id="W6kSZl_nQK33wp-_uPpL-134" value="+ deleteRregulli(): Lejimi" style="text;strokeColor=none;fillColor=none;align=left;verticalAlign=top;spacingLeft=4;spacingRight=4;overflow=hidden;rotatable=0;points=[[0,0.5],[1,0.5]];portConstraint=eastwest;whiteSpace=wrap;html=1;" vertex="1" parent="W6kSZl_nQK33wp-_uPpL-81">
          <mxGeometry y="78" width="162" height="26" as="geometry" />
        </mxCell>
        <mxCell id="W6kSZl_nQK33wp-_uPpL-135" value="+ getRoles(): Lejimi" style="text;strokeColor=none;fillColor=none;align=left;verticalAlign=top;spacingLeft=4;spacingRight=4;overflow=hidden;rotatable=0;points=[[0,0.5],[1,0.5]];portConstraint=eastwest;whiteSpace=wrap;html=1;" vertex="1" parent="W6kSZl_nQK33wp-_uPpL-81">
          <mxGeometry y="104" width="162" height="26" as="geometry" />
        </mxCell>
        <mxCell id="W6kSZl_nQK33wp-_uPpL-136" value="+ setRoles(): Lejimi" style="text;strokeColor=none;fillColor=none;align=left;verticalAlign=top;spacingLeft=4;spacingRight=4;overflow=hidden;rotatable=0;points=[[0,0.5],[1,0.5]];portConstraint=eastwest;whiteSpace=wrap;html=1;" vertex="1" parent="W6kSZl_nQK33wp-_uPpL-81">
          <mxGeometry y="130" width="162" height="26" as="geometry" />
        </mxCell>
        <mxCell id="W6kSZl_nQK33wp-_uPpL-137" value="+ deleteRoles(): Lejimi" style="text;strokeColor=none;fillColor=none;align=left;verticalAlign=top;spacingLeft=4;spacingRight=4;overflow=hidden;rotatable=0;points=[[0,0.5],[1,0.5]];portConstraint=eastwest;whiteSpace=wrap;html=1;" vertex="1" parent="W6kSZl_nQK33wp-_uPpL-81">
          <mxGeometry y="156" width="162" height="26" as="geometry" />
        </mxCell>
        <mxCell id="W6kSZl_nQK33wp-_uPpL-111" value="Lejimi" style="swimlane;fontStyle=0;childLayout=stackLayout;horizontal=1;startSize=26;fillColor=none;horizontalStack=0;resizeParent=1;resizeParentMax=0;resizeLast=0;collapsible=1;marginBottom=0;whiteSpace=wrap;html=1;" vertex="1" parent="WIyWlLk6GJQsqaUBKTNV-1">
          <mxGeometry x="1428" y="-220" width="170" height="104" as="geometry" />
        </mxCell>
        <mxCell id="W6kSZl_nQK33wp-_uPpL-112" value="+ setRregulli(): String" style="text;strokeColor=none;fillColor=none;align=left;verticalAlign=top;spacingLeft=4;spacingRight=4;overflow=hidden;rotatable=0;points=[[0,0.5],[1,0.5]];portConstraint=eastwest;whiteSpace=wrap;html=1;" vertex="1" parent="W6kSZl_nQK33wp-_uPpL-111">
          <mxGeometry y="26" width="170" height="26" as="geometry" />
        </mxCell>
        <mxCell id="W6kSZl_nQK33wp-_uPpL-113" value="+ setDate(): String" style="text;strokeColor=none;fillColor=none;align=left;verticalAlign=top;spacingLeft=4;spacingRight=4;overflow=hidden;rotatable=0;points=[[0,0.5],[1,0.5]];portConstraint=eastwest;whiteSpace=wrap;html=1;" vertex="1" parent="W6kSZl_nQK33wp-_uPpL-111">
          <mxGeometry y="52" width="170" height="26" as="geometry" />
        </mxCell>
        <mxCell id="W6kSZl_nQK33wp-_uPpL-125" value="+ setRoliType(): String" style="text;strokeColor=none;fillColor=none;align=left;verticalAlign=top;spacingLeft=4;spacingRight=4;overflow=hidden;rotatable=0;points=[[0,0.5],[1,0.5]];portConstraint=eastwest;whiteSpace=wrap;html=1;" vertex="1" parent="W6kSZl_nQK33wp-_uPpL-111">
          <mxGeometry y="78" width="170" height="26" as="geometry" />
        </mxCell>
        <mxCell id="W6kSZl_nQK33wp-_uPpL-116" value="PerdoruesiSherbim" style="swimlane;fontStyle=0;childLayout=stackLayout;horizontal=1;startSize=26;fillColor=none;horizontalStack=0;resizeParent=1;resizeParentMax=0;resizeLast=0;collapsible=1;marginBottom=0;whiteSpace=wrap;html=1;" vertex="1" parent="WIyWlLk6GJQsqaUBKTNV-1">
          <mxGeometry x="1180" y="-433" width="255" height="182" as="geometry" />
        </mxCell>
        <mxCell id="W6kSZl_nQK33wp-_uPpL-117" value="# getperdoruesi): ShfaqPerdoruesin" style="text;strokeColor=none;fillColor=none;align=left;verticalAlign=top;spacingLeft=4;spacingRight=4;overflow=hidden;rotatable=0;points=[[0,0.5],[1,0.5]];portConstraint=eastwest;whiteSpace=wrap;html=1;" vertex="1" parent="W6kSZl_nQK33wp-_uPpL-116">
          <mxGeometry y="26" width="255" height="26" as="geometry" />
        </mxCell>
        <mxCell id="W6kSZl_nQK33wp-_uPpL-118" value="+ setEmri(): ShfaqPerdoruesin" style="text;strokeColor=none;fillColor=none;align=left;verticalAlign=top;spacingLeft=4;spacingRight=4;overflow=hidden;rotatable=0;points=[[0,0.5],[1,0.5]];portConstraint=eastwest;whiteSpace=wrap;html=1;" vertex="1" parent="W6kSZl_nQK33wp-_uPpL-116">
          <mxGeometry y="52" width="255" height="26" as="geometry" />
        </mxCell>
        <mxCell id="W6kSZl_nQK33wp-_uPpL-130" value="+ setMbiemri(): ShfaqPerdoruesin" style="text;strokeColor=none;fillColor=none;align=left;verticalAlign=top;spacingLeft=4;spacingRight=4;overflow=hidden;rotatable=0;points=[[0,0.5],[1,0.5]];portConstraint=eastwest;whiteSpace=wrap;html=1;" vertex="1" parent="W6kSZl_nQK33wp-_uPpL-116">
          <mxGeometry y="78" width="255" height="26" as="geometry" />
        </mxCell>
        <mxCell id="W6kSZl_nQK33wp-_uPpL-131" value="+ setDataModifikimit(): ShfaqPerdoruesin" style="text;strokeColor=none;fillColor=none;align=left;verticalAlign=top;spacingLeft=4;spacingRight=4;overflow=hidden;rotatable=0;points=[[0,0.5],[1,0.5]];portConstraint=eastwest;whiteSpace=wrap;html=1;" vertex="1" parent="W6kSZl_nQK33wp-_uPpL-116">
          <mxGeometry y="104" width="255" height="26" as="geometry" />
        </mxCell>
        <mxCell id="W6kSZl_nQK33wp-_uPpL-144" value="+ getEmail(): Email" style="text;strokeColor=none;fillColor=none;align=left;verticalAlign=top;spacingLeft=4;spacingRight=4;overflow=hidden;rotatable=0;points=[[0,0.5],[1,0.5]];portConstraint=eastwest;whiteSpace=wrap;html=1;" vertex="1" parent="W6kSZl_nQK33wp-_uPpL-116">
          <mxGeometry y="130" width="255" height="26" as="geometry" />
        </mxCell>
        <mxCell id="W6kSZl_nQK33wp-_uPpL-143" value="+ setEmail(): ShfaqPerdoruesin" style="text;strokeColor=none;fillColor=none;align=left;verticalAlign=top;spacingLeft=4;spacingRight=4;overflow=hidden;rotatable=0;points=[[0,0.5],[1,0.5]];portConstraint=eastwest;whiteSpace=wrap;html=1;" vertex="1" parent="W6kSZl_nQK33wp-_uPpL-116">
          <mxGeometry y="156" width="255" height="26" as="geometry" />
        </mxCell>
        <mxCell id="W6kSZl_nQK33wp-_uPpL-119" value="Email" style="swimlane;fontStyle=0;childLayout=stackLayout;horizontal=1;startSize=26;fillColor=none;horizontalStack=0;resizeParent=1;resizeParentMax=0;resizeLast=0;collapsible=1;marginBottom=0;whiteSpace=wrap;html=1;" vertex="1" parent="WIyWlLk6GJQsqaUBKTNV-1">
          <mxGeometry x="1570" y="-433" width="170" height="104" as="geometry" />
        </mxCell>
        <mxCell id="W6kSZl_nQK33wp-_uPpL-120" value="# setEmail(): String" style="text;strokeColor=none;fillColor=none;align=left;verticalAlign=top;spacingLeft=4;spacingRight=4;overflow=hidden;rotatable=0;points=[[0,0.5],[1,0.5]];portConstraint=eastwest;whiteSpace=wrap;html=1;" vertex="1" parent="W6kSZl_nQK33wp-_uPpL-119">
          <mxGeometry y="26" width="170" height="26" as="geometry" />
        </mxCell>
        <mxCell id="W6kSZl_nQK33wp-_uPpL-127" value="# setEmailDate(): String" style="text;strokeColor=none;fillColor=none;align=left;verticalAlign=top;spacingLeft=4;spacingRight=4;overflow=hidden;rotatable=0;points=[[0,0.5],[1,0.5]];portConstraint=eastwest;whiteSpace=wrap;html=1;" vertex="1" parent="W6kSZl_nQK33wp-_uPpL-119">
          <mxGeometry y="52" width="170" height="26" as="geometry" />
        </mxCell>
        <mxCell id="W6kSZl_nQK33wp-_uPpL-121" value="# getVerification(): Boolean" style="text;strokeColor=none;fillColor=none;align=left;verticalAlign=top;spacingLeft=4;spacingRight=4;overflow=hidden;rotatable=0;points=[[0,0.5],[1,0.5]];portConstraint=eastwest;whiteSpace=wrap;html=1;" vertex="1" parent="W6kSZl_nQK33wp-_uPpL-119">
          <mxGeometry y="78" width="170" height="26" as="geometry" />
        </mxCell>
        <mxCell id="W6kSZl_nQK33wp-_uPpL-122" value="EmailVerification" style="swimlane;fontStyle=0;childLayout=stackLayout;horizontal=1;startSize=26;fillColor=none;horizontalStack=0;resizeParent=1;resizeParentMax=0;resizeLast=0;collapsible=1;marginBottom=0;whiteSpace=wrap;html=1;" vertex="1" parent="WIyWlLk6GJQsqaUBKTNV-1">
          <mxGeometry x="1630" y="-260" width="170" height="104" as="geometry" />
        </mxCell>
        <mxCell id="W6kSZl_nQK33wp-_uPpL-123" value="+ getEmail(): String" style="text;strokeColor=none;fillColor=none;align=left;verticalAlign=top;spacingLeft=4;spacingRight=4;overflow=hidden;rotatable=0;points=[[0,0.5],[1,0.5]];portConstraint=eastwest;whiteSpace=wrap;html=1;" vertex="1" parent="W6kSZl_nQK33wp-_uPpL-122">
          <mxGeometry y="26" width="170" height="26" as="geometry" />
        </mxCell>
        <mxCell id="W6kSZl_nQK33wp-_uPpL-128" value="+ getEmailDate(): String" style="text;strokeColor=none;fillColor=none;align=left;verticalAlign=top;spacingLeft=4;spacingRight=4;overflow=hidden;rotatable=0;points=[[0,0.5],[1,0.5]];portConstraint=eastwest;whiteSpace=wrap;html=1;" vertex="1" parent="W6kSZl_nQK33wp-_uPpL-122">
          <mxGeometry y="52" width="170" height="26" as="geometry" />
        </mxCell>
        <mxCell id="W6kSZl_nQK33wp-_uPpL-124" value="# verifyEmail(Email): Boolean" style="text;strokeColor=none;fillColor=none;align=left;verticalAlign=top;spacingLeft=4;spacingRight=4;overflow=hidden;rotatable=0;points=[[0,0.5],[1,0.5]];portConstraint=eastwest;whiteSpace=wrap;html=1;" vertex="1" parent="W6kSZl_nQK33wp-_uPpL-122">
          <mxGeometry y="78" width="170" height="26" as="geometry" />
        </mxCell>
        <mxCell id="W6kSZl_nQK33wp-_uPpL-138" style="rounded=0;orthogonalLoop=1;jettySize=auto;html=1;exitX=0.5;exitY=0;exitDx=0;exitDy=0;entryX=0.592;entryY=1.071;entryDx=0;entryDy=0;entryPerimeter=0;endArrow=open;endFill=0;dashed=1;" edge="1" parent="WIyWlLk6GJQsqaUBKTNV-1" source="W6kSZl_nQK33wp-_uPpL-116" target="W6kSZl_nQK33wp-_uPpL-132">
          <mxGeometry relative="1" as="geometry" />
        </mxCell>
        <mxCell id="W6kSZl_nQK33wp-_uPpL-139" style="edgeStyle=orthogonalEdgeStyle;rounded=0;orthogonalLoop=1;jettySize=auto;html=1;exitX=1;exitY=0.5;exitDx=0;exitDy=0;entryX=0;entryY=0.5;entryDx=0;entryDy=0;dashed=1;endArrow=open;endFill=0;" edge="1" parent="WIyWlLk6GJQsqaUBKTNV-1" source="W6kSZl_nQK33wp-_uPpL-133" target="W6kSZl_nQK33wp-_uPpL-113">
          <mxGeometry relative="1" as="geometry" />
        </mxCell>
        <mxCell id="W6kSZl_nQK33wp-_uPpL-140" style="rounded=0;orthogonalLoop=1;jettySize=auto;html=1;exitX=0;exitY=0.5;exitDx=0;exitDy=0;entryX=1;entryY=0.25;entryDx=0;entryDy=0;endArrow=open;endFill=0;dashed=1;" edge="1" parent="WIyWlLk6GJQsqaUBKTNV-1" source="W6kSZl_nQK33wp-_uPpL-74" target="W6kSZl_nQK33wp-_uPpL-68">
          <mxGeometry relative="1" as="geometry" />
        </mxCell>
        <mxCell id="W6kSZl_nQK33wp-_uPpL-141" style="edgeStyle=orthogonalEdgeStyle;rounded=0;orthogonalLoop=1;jettySize=auto;html=1;exitX=0;exitY=0.5;exitDx=0;exitDy=0;entryX=1;entryY=0.5;entryDx=0;entryDy=0;endArrow=diamondThin;endFill=0;startSize=23;endSize=22;" edge="1" parent="WIyWlLk6GJQsqaUBKTNV-1" source="W6kSZl_nQK33wp-_uPpL-120" target="W6kSZl_nQK33wp-_uPpL-117">
          <mxGeometry relative="1" as="geometry" />
        </mxCell>
        <mxCell id="W6kSZl_nQK33wp-_uPpL-142" style="edgeStyle=orthogonalEdgeStyle;rounded=0;orthogonalLoop=1;jettySize=auto;html=1;exitX=0.5;exitY=0;exitDx=0;exitDy=0;entryX=0.647;entryY=0.962;entryDx=0;entryDy=0;entryPerimeter=0;endArrow=diamondThin;endFill=0;startSize=22;endSize=22;" edge="1" parent="WIyWlLk6GJQsqaUBKTNV-1" source="W6kSZl_nQK33wp-_uPpL-122" target="W6kSZl_nQK33wp-_uPpL-121">
          <mxGeometry relative="1" as="geometry" />
        </mxCell>
        <mxCell id="W6kSZl_nQK33wp-_uPpL-148" style="rounded=0;orthogonalLoop=1;jettySize=auto;html=1;exitX=0.5;exitY=0;exitDx=0;exitDy=0;entryX=0.262;entryY=1.067;entryDx=0;entryDy=0;entryPerimeter=0;startArrow=open;startFill=0;dashed=1;" edge="1" parent="WIyWlLk6GJQsqaUBKTNV-1" source="W6kSZl_nQK33wp-_uPpL-111" target="W6kSZl_nQK33wp-_uPpL-147">
          <mxGeometry relative="1" as="geometry" />
        </mxCell>
        <mxCell id="W6kSZl_nQK33wp-_uPpL-149" value="1..*" style="text;html=1;strokeColor=none;fillColor=none;align=center;verticalAlign=middle;whiteSpace=wrap;rounded=0;" vertex="1" parent="WIyWlLk6GJQsqaUBKTNV-1">
          <mxGeometry x="-372" y="-186" width="60" height="30" as="geometry" />
        </mxCell>
        <mxCell id="W6kSZl_nQK33wp-_uPpL-150" value="eshte" style="text;html=1;strokeColor=none;fillColor=none;align=center;verticalAlign=middle;whiteSpace=wrap;rounded=0;" vertex="1" parent="WIyWlLk6GJQsqaUBKTNV-1">
          <mxGeometry x="-321" y="-190" width="56" height="30" as="geometry" />
        </mxCell>
        <mxCell id="W6kSZl_nQK33wp-_uPpL-151" value="" style="shape=folder;fontStyle=1;spacingTop=10;tabWidth=130;tabHeight=30;tabPosition=left;html=1;whiteSpace=wrap;" vertex="1" parent="WIyWlLk6GJQsqaUBKTNV-1">
          <mxGeometry x="-470" y="-480" width="690" height="780" as="geometry" />
        </mxCell>
        <mxCell id="W6kSZl_nQK33wp-_uPpL-152" value="JobApplication" style="text;html=1;strokeColor=none;fillColor=none;align=center;verticalAlign=middle;whiteSpace=wrap;rounded=0;" vertex="1" parent="WIyWlLk6GJQsqaUBKTNV-1">
          <mxGeometry x="-432" y="-480" width="60" height="30" as="geometry" />
        </mxCell>
        <mxCell id="W6kSZl_nQK33wp-_uPpL-195" style="edgeStyle=orthogonalEdgeStyle;rounded=0;orthogonalLoop=1;jettySize=auto;html=1;exitX=1;exitY=1;exitDx=0;exitDy=0;entryX=0;entryY=0;entryDx=0;entryDy=0;startArrow=open;startFill=0;dashed=1;endArrow=none;endFill=0;endSize=22;startSize=10;" edge="1" parent="WIyWlLk6GJQsqaUBKTNV-1" source="W6kSZl_nQK33wp-_uPpL-153" target="qlR7j_K9BmZmSB4jI-02-41">
          <mxGeometry relative="1" as="geometry">
            <Array as="points">
              <mxPoint x="-270" y="-142" />
            </Array>
          </mxGeometry>
        </mxCell>
        <mxCell id="W6kSZl_nQK33wp-_uPpL-153" value="&lt;&lt;interface&gt;&gt;&#xa;ShfaqPunet" style="swimlane;fontStyle=0;align=center;verticalAlign=top;childLayout=stackLayout;horizontal=1;startSize=40;horizontalStack=0;resizeParent=1;resizeLast=0;collapsible=1;marginBottom=0;rounded=0;shadow=0;strokeWidth=1;" vertex="1" parent="WIyWlLk6GJQsqaUBKTNV-1">
          <mxGeometry x="-450" y="-420" width="180" height="70" as="geometry">
            <mxRectangle x="130" y="380" width="160" height="26" as="alternateBounds" />
          </mxGeometry>
        </mxCell>
        <mxCell id="W6kSZl_nQK33wp-_uPpL-154" value="+ getPune(): Punet" style="text;align=left;verticalAlign=top;spacingLeft=4;spacingRight=4;overflow=hidden;rotatable=0;points=[[0,0.5],[1,0.5]];portConstraint=eastwest;" vertex="1" parent="W6kSZl_nQK33wp-_uPpL-153">
          <mxGeometry y="40" width="180" height="26" as="geometry" />
        </mxCell>
        <mxCell id="W6kSZl_nQK33wp-_uPpL-213" style="rounded=0;orthogonalLoop=1;jettySize=auto;html=1;exitX=0;exitY=0.25;exitDx=0;exitDy=0;entryX=1;entryY=0.5;entryDx=0;entryDy=0;edgeStyle=orthogonalEdgeStyle;endArrow=open;endFill=0;dashed=1;endSize=10;" edge="1" parent="WIyWlLk6GJQsqaUBKTNV-1" source="W6kSZl_nQK33wp-_uPpL-183" target="W6kSZl_nQK33wp-_uPpL-154">
          <mxGeometry relative="1" as="geometry">
            <Array as="points">
              <mxPoint x="-15" y="-140" />
              <mxPoint x="-70" y="-140" />
              <mxPoint x="-70" y="-200" />
              <mxPoint x="-220" y="-200" />
              <mxPoint x="-220" y="-367" />
            </Array>
          </mxGeometry>
        </mxCell>
        <mxCell id="W6kSZl_nQK33wp-_uPpL-183" value="Aplikimi&amp;nbsp;" style="swimlane;fontStyle=0;childLayout=stackLayout;horizontal=1;startSize=26;fillColor=none;horizontalStack=0;resizeParent=1;resizeParentMax=0;resizeLast=0;collapsible=1;marginBottom=0;whiteSpace=wrap;html=1;" vertex="1" parent="WIyWlLk6GJQsqaUBKTNV-1">
          <mxGeometry x="-15" y="-149" width="210" height="260" as="geometry" />
        </mxCell>
        <mxCell id="W6kSZl_nQK33wp-_uPpL-184" value="+ getPune(): ShfaqPunet" style="text;strokeColor=none;fillColor=none;align=left;verticalAlign=top;spacingLeft=4;spacingRight=4;overflow=hidden;rotatable=0;points=[[0,0.5],[1,0.5]];portConstraint=eastwest;whiteSpace=wrap;html=1;" vertex="1" parent="W6kSZl_nQK33wp-_uPpL-183">
          <mxGeometry y="26" width="210" height="26" as="geometry" />
        </mxCell>
        <mxCell id="W6kSZl_nQK33wp-_uPpL-185" value="+ sendApplication(): ShfaqPunet" style="text;strokeColor=none;fillColor=none;align=left;verticalAlign=top;spacingLeft=4;spacingRight=4;overflow=hidden;rotatable=0;points=[[0,0.5],[1,0.5]];portConstraint=eastwest;whiteSpace=wrap;html=1;" vertex="1" parent="W6kSZl_nQK33wp-_uPpL-183">
          <mxGeometry y="52" width="210" height="26" as="geometry" />
        </mxCell>
        <mxCell id="W6kSZl_nQK33wp-_uPpL-186" value="+ startIntervista(): interivsta" style="text;strokeColor=none;fillColor=none;align=left;verticalAlign=top;spacingLeft=4;spacingRight=4;overflow=hidden;rotatable=0;points=[[0,0.5],[1,0.5]];portConstraint=eastwest;whiteSpace=wrap;html=1;" vertex="1" parent="W6kSZl_nQK33wp-_uPpL-183">
          <mxGeometry y="78" width="210" height="26" as="geometry" />
        </mxCell>
        <mxCell id="W6kSZl_nQK33wp-_uPpL-221" value="+ getAftesia(): Aftesia" style="text;strokeColor=none;fillColor=none;align=left;verticalAlign=top;spacingLeft=4;spacingRight=4;overflow=hidden;rotatable=0;points=[[0,0.5],[1,0.5]];portConstraint=eastwest;whiteSpace=wrap;html=1;" vertex="1" parent="W6kSZl_nQK33wp-_uPpL-183">
          <mxGeometry y="104" width="210" height="26" as="geometry" />
        </mxCell>
        <mxCell id="W6kSZl_nQK33wp-_uPpL-222" value="+ getEdukimi(): Edukimi" style="text;strokeColor=none;fillColor=none;align=left;verticalAlign=top;spacingLeft=4;spacingRight=4;overflow=hidden;rotatable=0;points=[[0,0.5],[1,0.5]];portConstraint=eastwest;whiteSpace=wrap;html=1;" vertex="1" parent="W6kSZl_nQK33wp-_uPpL-183">
          <mxGeometry y="130" width="210" height="26" as="geometry" />
        </mxCell>
        <mxCell id="W6kSZl_nQK33wp-_uPpL-223" value="+ getHis(): HistoriaAplikantit" style="text;strokeColor=none;fillColor=none;align=left;verticalAlign=top;spacingLeft=4;spacingRight=4;overflow=hidden;rotatable=0;points=[[0,0.5],[1,0.5]];portConstraint=eastwest;whiteSpace=wrap;html=1;" vertex="1" parent="W6kSZl_nQK33wp-_uPpL-183">
          <mxGeometry y="156" width="210" height="26" as="geometry" />
        </mxCell>
        <mxCell id="W6kSZl_nQK33wp-_uPpL-224" value="+ getStatus(): StatusiAplikimit" style="text;strokeColor=none;fillColor=none;align=left;verticalAlign=top;spacingLeft=4;spacingRight=4;overflow=hidden;rotatable=0;points=[[0,0.5],[1,0.5]];portConstraint=eastwest;whiteSpace=wrap;html=1;" vertex="1" parent="W6kSZl_nQK33wp-_uPpL-183">
          <mxGeometry y="182" width="210" height="26" as="geometry" />
        </mxCell>
        <mxCell id="W6kSZl_nQK33wp-_uPpL-229" value="+ getCV(): CV" style="text;strokeColor=none;fillColor=none;align=left;verticalAlign=top;spacingLeft=4;spacingRight=4;overflow=hidden;rotatable=0;points=[[0,0.5],[1,0.5]];portConstraint=eastwest;whiteSpace=wrap;html=1;" vertex="1" parent="W6kSZl_nQK33wp-_uPpL-183">
          <mxGeometry y="208" width="210" height="26" as="geometry" />
        </mxCell>
        <mxCell id="W6kSZl_nQK33wp-_uPpL-225" value="+ getLetraMotiv(): LetraModivuese" style="text;strokeColor=none;fillColor=none;align=left;verticalAlign=top;spacingLeft=4;spacingRight=4;overflow=hidden;rotatable=0;points=[[0,0.5],[1,0.5]];portConstraint=eastwest;whiteSpace=wrap;html=1;" vertex="1" parent="W6kSZl_nQK33wp-_uPpL-183">
          <mxGeometry y="234" width="210" height="26" as="geometry" />
        </mxCell>
        <mxCell id="qlR7j_K9BmZmSB4jI-02-18" value="CV" style="swimlane;fontStyle=0;childLayout=stackLayout;horizontal=1;startSize=26;fillColor=none;horizontalStack=0;resizeParent=1;resizeParentMax=0;resizeLast=0;collapsible=1;marginBottom=0;whiteSpace=wrap;html=1;" parent="WIyWlLk6GJQsqaUBKTNV-1" vertex="1">
          <mxGeometry x="-449" y="-328" width="140" height="212" as="geometry" />
        </mxCell>
        <mxCell id="qlR7j_K9BmZmSB4jI-02-19" value="+&amp;nbsp;emri: String" style="text;strokeColor=none;fillColor=none;align=left;verticalAlign=top;spacingLeft=4;spacingRight=4;overflow=hidden;rotatable=0;points=[[0,0.5],[1,0.5]];portConstraint=eastwest;whiteSpace=wrap;html=1;" parent="qlR7j_K9BmZmSB4jI-02-18" vertex="1">
          <mxGeometry y="26" width="140" height="26" as="geometry" />
        </mxCell>
        <mxCell id="qlR7j_K9BmZmSB4jI-02-20" value="+&amp;nbsp;mbiemri: String" style="text;strokeColor=none;fillColor=none;align=left;verticalAlign=top;spacingLeft=4;spacingRight=4;overflow=hidden;rotatable=0;points=[[0,0.5],[1,0.5]];portConstraint=eastwest;whiteSpace=wrap;html=1;" parent="qlR7j_K9BmZmSB4jI-02-18" vertex="1">
          <mxGeometry y="52" width="140" height="26" as="geometry" />
        </mxCell>
        <mxCell id="qlR7j_K9BmZmSB4jI-02-21" value="+&amp;nbsp;adresa: String" style="text;strokeColor=none;fillColor=none;align=left;verticalAlign=top;spacingLeft=4;spacingRight=4;overflow=hidden;rotatable=0;points=[[0,0.5],[1,0.5]];portConstraint=eastwest;whiteSpace=wrap;html=1;" parent="qlR7j_K9BmZmSB4jI-02-18" vertex="1">
          <mxGeometry y="78" width="140" height="26" as="geometry" />
        </mxCell>
        <mxCell id="qlR7j_K9BmZmSB4jI-02-22" value="+&amp;nbsp;kontaktet: String" style="text;strokeColor=none;fillColor=none;align=left;verticalAlign=top;spacingLeft=4;spacingRight=4;overflow=hidden;rotatable=0;points=[[0,0.5],[1,0.5]];portConstraint=eastwest;whiteSpace=wrap;html=1;" parent="qlR7j_K9BmZmSB4jI-02-18" vertex="1">
          <mxGeometry y="104" width="140" height="26" as="geometry" />
        </mxCell>
        <mxCell id="qlR7j_K9BmZmSB4jI-02-23" value="+&amp;nbsp;edukimi: String" style="text;strokeColor=none;fillColor=none;align=left;verticalAlign=top;spacingLeft=4;spacingRight=4;overflow=hidden;rotatable=0;points=[[0,0.5],[1,0.5]];portConstraint=eastwest;whiteSpace=wrap;html=1;" parent="qlR7j_K9BmZmSB4jI-02-18" vertex="1">
          <mxGeometry y="130" width="140" height="30" as="geometry" />
        </mxCell>
        <mxCell id="qlR7j_K9BmZmSB4jI-02-24" value="+&amp;nbsp;eksperienca: String" style="text;strokeColor=none;fillColor=none;align=left;verticalAlign=top;spacingLeft=4;spacingRight=4;overflow=hidden;rotatable=0;points=[[0,0.5],[1,0.5]];portConstraint=eastwest;whiteSpace=wrap;html=1;" parent="qlR7j_K9BmZmSB4jI-02-18" vertex="1">
          <mxGeometry y="160" width="140" height="26" as="geometry" />
        </mxCell>
        <mxCell id="qlR7j_K9BmZmSB4jI-02-25" value="+&amp;nbsp; shkathetesit: String" style="text;strokeColor=none;fillColor=none;align=left;verticalAlign=top;spacingLeft=4;spacingRight=4;overflow=hidden;rotatable=0;points=[[0,0.5],[1,0.5]];portConstraint=eastwest;whiteSpace=wrap;html=1;" parent="qlR7j_K9BmZmSB4jI-02-18" vertex="1">
          <mxGeometry y="186" width="140" height="26" as="geometry" />
        </mxCell>
        <mxCell id="qlR7j_K9BmZmSB4jI-02-26" value="StatusiAplikimit" style="swimlane;fontStyle=0;childLayout=stackLayout;horizontal=1;startSize=26;fillColor=none;horizontalStack=0;resizeParent=1;resizeParentMax=0;resizeLast=0;collapsible=1;marginBottom=0;whiteSpace=wrap;html=1;" parent="WIyWlLk6GJQsqaUBKTNV-1" vertex="1">
          <mxGeometry x="-449" y="-84" width="178" height="130" as="geometry" />
        </mxCell>
        <mxCell id="qlR7j_K9BmZmSB4jI-02-27" value="+&amp;nbsp;statusiAktual: String" style="text;strokeColor=none;fillColor=none;align=left;verticalAlign=top;spacingLeft=4;spacingRight=4;overflow=hidden;rotatable=0;points=[[0,0.5],[1,0.5]];portConstraint=eastwest;whiteSpace=wrap;html=1;" parent="qlR7j_K9BmZmSB4jI-02-26" vertex="1">
          <mxGeometry y="26" width="178" height="26" as="geometry" />
        </mxCell>
        <mxCell id="qlR7j_K9BmZmSB4jI-02-28" value="+&amp;nbsp;emriKompanise: String" style="text;strokeColor=none;fillColor=none;align=left;verticalAlign=top;spacingLeft=4;spacingRight=4;overflow=hidden;rotatable=0;points=[[0,0.5],[1,0.5]];portConstraint=eastwest;whiteSpace=wrap;html=1;" parent="qlR7j_K9BmZmSB4jI-02-26" vertex="1">
          <mxGeometry y="52" width="178" height="26" as="geometry" />
        </mxCell>
        <mxCell id="qlR7j_K9BmZmSB4jI-02-29" value="+ pozitaPunes: String" style="text;strokeColor=none;fillColor=none;align=left;verticalAlign=top;spacingLeft=4;spacingRight=4;overflow=hidden;rotatable=0;points=[[0,0.5],[1,0.5]];portConstraint=eastwest;whiteSpace=wrap;html=1;" parent="qlR7j_K9BmZmSB4jI-02-26" vertex="1">
          <mxGeometry y="78" width="178" height="26" as="geometry" />
        </mxCell>
        <mxCell id="W6kSZl_nQK33wp-_uPpL-230" value="+ setStatus(): Boolean" style="text;strokeColor=none;fillColor=none;align=left;verticalAlign=top;spacingLeft=4;spacingRight=4;overflow=hidden;rotatable=0;points=[[0,0.5],[1,0.5]];portConstraint=eastwest;whiteSpace=wrap;html=1;" vertex="1" parent="qlR7j_K9BmZmSB4jI-02-26">
          <mxGeometry y="104" width="178" height="26" as="geometry" />
        </mxCell>
        <mxCell id="qlR7j_K9BmZmSB4jI-02-33" value="LetraMotivuese" style="swimlane;fontStyle=0;childLayout=stackLayout;horizontal=1;startSize=26;fillColor=none;horizontalStack=0;resizeParent=1;resizeParentMax=0;resizeLast=0;collapsible=1;marginBottom=0;whiteSpace=wrap;html=1;" parent="WIyWlLk6GJQsqaUBKTNV-1" vertex="1">
          <mxGeometry x="28.75" y="150" width="140" height="130" as="geometry" />
        </mxCell>
        <mxCell id="qlR7j_K9BmZmSB4jI-02-34" value="+&amp;nbsp;emri: String" style="text;strokeColor=none;fillColor=none;align=left;verticalAlign=top;spacingLeft=4;spacingRight=4;overflow=hidden;rotatable=0;points=[[0,0.5],[1,0.5]];portConstraint=eastwest;whiteSpace=wrap;html=1;" parent="qlR7j_K9BmZmSB4jI-02-33" vertex="1">
          <mxGeometry y="26" width="140" height="26" as="geometry" />
        </mxCell>
        <mxCell id="qlR7j_K9BmZmSB4jI-02-35" value="+&amp;nbsp;mbiemri: String" style="text;strokeColor=none;fillColor=none;align=left;verticalAlign=top;spacingLeft=4;spacingRight=4;overflow=hidden;rotatable=0;points=[[0,0.5],[1,0.5]];portConstraint=eastwest;whiteSpace=wrap;html=1;" parent="qlR7j_K9BmZmSB4jI-02-33" vertex="1">
          <mxGeometry y="52" width="140" height="26" as="geometry" />
        </mxCell>
        <mxCell id="qlR7j_K9BmZmSB4jI-02-36" value="+ informacion: String" style="text;strokeColor=none;fillColor=none;align=left;verticalAlign=top;spacingLeft=4;spacingRight=4;overflow=hidden;rotatable=0;points=[[0,0.5],[1,0.5]];portConstraint=eastwest;whiteSpace=wrap;html=1;" parent="qlR7j_K9BmZmSB4jI-02-33" vertex="1">
          <mxGeometry y="78" width="140" height="26" as="geometry" />
        </mxCell>
        <mxCell id="qlR7j_K9BmZmSB4jI-02-37" value="+&amp;nbsp; shkathetesit: String" style="text;strokeColor=none;fillColor=none;align=left;verticalAlign=top;spacingLeft=4;spacingRight=4;overflow=hidden;rotatable=0;points=[[0,0.5],[1,0.5]];portConstraint=eastwest;whiteSpace=wrap;html=1;" parent="qlR7j_K9BmZmSB4jI-02-33" vertex="1">
          <mxGeometry y="104" width="140" height="26" as="geometry" />
        </mxCell>
        <mxCell id="qlR7j_K9BmZmSB4jI-02-41" value="Intervista" style="swimlane;fontStyle=0;childLayout=stackLayout;horizontal=1;startSize=26;fillColor=none;horizontalStack=0;resizeParent=1;resizeParentMax=0;resizeLast=0;collapsible=1;marginBottom=0;whiteSpace=wrap;html=1;" parent="WIyWlLk6GJQsqaUBKTNV-1" vertex="1">
          <mxGeometry x="-230" y="-149" width="140" height="104" as="geometry" />
        </mxCell>
        <mxCell id="qlR7j_K9BmZmSB4jI-02-42" value="+&amp;nbsp;data: Date" style="text;strokeColor=none;fillColor=none;align=left;verticalAlign=top;spacingLeft=4;spacingRight=4;overflow=hidden;rotatable=0;points=[[0,0.5],[1,0.5]];portConstraint=eastwest;whiteSpace=wrap;html=1;" parent="qlR7j_K9BmZmSB4jI-02-41" vertex="1">
          <mxGeometry y="26" width="140" height="26" as="geometry" />
        </mxCell>
        <mxCell id="qlR7j_K9BmZmSB4jI-02-43" value="+&amp;nbsp;koha: Time&lt;br/&gt;" style="text;strokeColor=none;fillColor=none;align=left;verticalAlign=top;spacingLeft=4;spacingRight=4;overflow=hidden;rotatable=0;points=[[0,0.5],[1,0.5]];portConstraint=eastwest;whiteSpace=wrap;html=1;" parent="qlR7j_K9BmZmSB4jI-02-41" vertex="1">
          <mxGeometry y="52" width="140" height="26" as="geometry" />
        </mxCell>
        <mxCell id="qlR7j_K9BmZmSB4jI-02-44" value="+&amp;nbsp;pjesemarresit: String" style="text;strokeColor=none;fillColor=none;align=left;verticalAlign=top;spacingLeft=4;spacingRight=4;overflow=hidden;rotatable=0;points=[[0,0.5],[1,0.5]];portConstraint=eastwest;whiteSpace=wrap;html=1;" parent="qlR7j_K9BmZmSB4jI-02-41" vertex="1">
          <mxGeometry y="78" width="140" height="26" as="geometry" />
        </mxCell>
        <mxCell id="Q0Zz0vdiJcVVRRVcLZJk-8" value="Aftesia" style="swimlane;fontStyle=0;childLayout=stackLayout;horizontal=1;startSize=26;fillColor=none;horizontalStack=0;resizeParent=1;resizeParentMax=0;resizeLast=0;collapsible=1;marginBottom=0;whiteSpace=wrap;html=1;" parent="WIyWlLk6GJQsqaUBKTNV-1" vertex="1">
          <mxGeometry x="-193" y="-420" width="170" height="186" as="geometry" />
        </mxCell>
        <mxCell id="Q0Zz0vdiJcVVRRVcLZJk-10" value="+&amp;nbsp;emri: String" style="text;strokeColor=none;fillColor=none;align=left;verticalAlign=top;spacingLeft=4;spacingRight=4;overflow=hidden;rotatable=0;points=[[0,0.5],[1,0.5]];portConstraint=eastwest;whiteSpace=wrap;html=1;" parent="Q0Zz0vdiJcVVRRVcLZJk-8" vertex="1">
          <mxGeometry y="26" width="170" height="26" as="geometry" />
        </mxCell>
        <mxCell id="Q0Zz0vdiJcVVRRVcLZJk-11" value="+ tipi: String" style="text;strokeColor=none;fillColor=none;align=left;verticalAlign=top;spacingLeft=4;spacingRight=4;overflow=hidden;rotatable=0;points=[[0,0.5],[1,0.5]];portConstraint=eastwest;whiteSpace=wrap;html=1;" parent="Q0Zz0vdiJcVVRRVcLZJk-8" vertex="1">
          <mxGeometry y="52" width="170" height="26" as="geometry" />
        </mxCell>
        <mxCell id="Q0Zz0vdiJcVVRRVcLZJk-12" value="+ niveli: String" style="text;strokeColor=none;fillColor=none;align=left;verticalAlign=top;spacingLeft=4;spacingRight=4;overflow=hidden;rotatable=0;points=[[0,0.5],[1,0.5]];portConstraint=eastwest;whiteSpace=wrap;html=1;" parent="Q0Zz0vdiJcVVRRVcLZJk-8" vertex="1">
          <mxGeometry y="78" width="170" height="26" as="geometry" />
        </mxCell>
        <mxCell id="Q0Zz0vdiJcVVRRVcLZJk-13" value="+ verifikimet: String" style="text;strokeColor=none;fillColor=none;align=left;verticalAlign=top;spacingLeft=4;spacingRight=4;overflow=hidden;rotatable=0;points=[[0,0.5],[1,0.5]];portConstraint=eastwest;whiteSpace=wrap;html=1;" parent="Q0Zz0vdiJcVVRRVcLZJk-8" vertex="1">
          <mxGeometry y="104" width="170" height="26" as="geometry" />
        </mxCell>
        <mxCell id="Q0Zz0vdiJcVVRRVcLZJk-14" value="+ dataArritjes: String" style="text;strokeColor=none;fillColor=none;align=left;verticalAlign=top;spacingLeft=4;spacingRight=4;overflow=hidden;rotatable=0;points=[[0,0.5],[1,0.5]];portConstraint=eastwest;whiteSpace=wrap;html=1;" parent="Q0Zz0vdiJcVVRRVcLZJk-8" vertex="1">
          <mxGeometry y="130" width="170" height="30" as="geometry" />
        </mxCell>
        <mxCell id="Q0Zz0vdiJcVVRRVcLZJk-15" value="+ komenti: String" style="text;strokeColor=none;fillColor=none;align=left;verticalAlign=top;spacingLeft=4;spacingRight=4;overflow=hidden;rotatable=0;points=[[0,0.5],[1,0.5]];portConstraint=eastwest;whiteSpace=wrap;html=1;" parent="Q0Zz0vdiJcVVRRVcLZJk-8" vertex="1">
          <mxGeometry y="160" width="170" height="26" as="geometry" />
        </mxCell>
        <mxCell id="Q0Zz0vdiJcVVRRVcLZJk-16" value="HistoriaAplikantit" style="swimlane;fontStyle=0;childLayout=stackLayout;horizontal=1;startSize=26;fillColor=none;horizontalStack=0;resizeParent=1;resizeParentMax=0;resizeLast=0;collapsible=1;marginBottom=0;whiteSpace=wrap;html=1;" parent="WIyWlLk6GJQsqaUBKTNV-1" vertex="1">
          <mxGeometry x="-210" y="120" width="170" height="156" as="geometry" />
        </mxCell>
        <mxCell id="Q0Zz0vdiJcVVRRVcLZJk-18" value="+&amp;nbsp;emri: String" style="text;strokeColor=none;fillColor=none;align=left;verticalAlign=top;spacingLeft=4;spacingRight=4;overflow=hidden;rotatable=0;points=[[0,0.5],[1,0.5]];portConstraint=eastwest;whiteSpace=wrap;html=1;" parent="Q0Zz0vdiJcVVRRVcLZJk-16" vertex="1">
          <mxGeometry y="26" width="170" height="26" as="geometry" />
        </mxCell>
        <mxCell id="Q0Zz0vdiJcVVRRVcLZJk-19" value="+ data: String" style="text;strokeColor=none;fillColor=none;align=left;verticalAlign=top;spacingLeft=4;spacingRight=4;overflow=hidden;rotatable=0;points=[[0,0.5],[1,0.5]];portConstraint=eastwest;whiteSpace=wrap;html=1;" parent="Q0Zz0vdiJcVVRRVcLZJk-16" vertex="1">
          <mxGeometry y="52" width="170" height="26" as="geometry" />
        </mxCell>
        <mxCell id="Q0Zz0vdiJcVVRRVcLZJk-17" value="+&amp;nbsp; pelqimet:&amp;nbsp; String" style="text;strokeColor=none;fillColor=none;align=left;verticalAlign=top;spacingLeft=4;spacingRight=4;overflow=hidden;rotatable=0;points=[[0,0.5],[1,0.5]];portConstraint=eastwest;whiteSpace=wrap;html=1;" parent="Q0Zz0vdiJcVVRRVcLZJk-16" vertex="1">
          <mxGeometry y="78" width="170" height="26" as="geometry" />
        </mxCell>
        <mxCell id="Q0Zz0vdiJcVVRRVcLZJk-23" value="+ komentet: String" style="text;strokeColor=none;fillColor=none;align=left;verticalAlign=top;spacingLeft=4;spacingRight=4;overflow=hidden;rotatable=0;points=[[0,0.5],[1,0.5]];portConstraint=eastwest;whiteSpace=wrap;html=1;" parent="Q0Zz0vdiJcVVRRVcLZJk-16" vertex="1">
          <mxGeometry y="104" width="170" height="26" as="geometry" />
        </mxCell>
        <mxCell id="W6kSZl_nQK33wp-_uPpL-231" value="+ getAplikanti(): Aplikanti" style="text;strokeColor=none;fillColor=none;align=left;verticalAlign=top;spacingLeft=4;spacingRight=4;overflow=hidden;rotatable=0;points=[[0,0.5],[1,0.5]];portConstraint=eastwest;whiteSpace=wrap;html=1;" vertex="1" parent="Q0Zz0vdiJcVVRRVcLZJk-16">
          <mxGeometry y="130" width="170" height="26" as="geometry" />
        </mxCell>
        <mxCell id="Q0Zz0vdiJcVVRRVcLZJk-24" value="Edukimi" style="swimlane;fontStyle=0;childLayout=stackLayout;horizontal=1;startSize=26;fillColor=none;horizontalStack=0;resizeParent=1;resizeParentMax=0;resizeLast=0;collapsible=1;marginBottom=0;whiteSpace=wrap;html=1;" parent="WIyWlLk6GJQsqaUBKTNV-1" vertex="1">
          <mxGeometry x="10" y="-420" width="160" height="212" as="geometry" />
        </mxCell>
        <mxCell id="Q0Zz0vdiJcVVRRVcLZJk-26" value="+&amp;nbsp;emri: String" style="text;strokeColor=none;fillColor=none;align=left;verticalAlign=top;spacingLeft=4;spacingRight=4;overflow=hidden;rotatable=0;points=[[0,0.5],[1,0.5]];portConstraint=eastwest;whiteSpace=wrap;html=1;" parent="Q0Zz0vdiJcVVRRVcLZJk-24" vertex="1">
          <mxGeometry y="26" width="160" height="26" as="geometry" />
        </mxCell>
        <mxCell id="Q0Zz0vdiJcVVRRVcLZJk-27" value="+ tipi: String" style="text;strokeColor=none;fillColor=none;align=left;verticalAlign=top;spacingLeft=4;spacingRight=4;overflow=hidden;rotatable=0;points=[[0,0.5],[1,0.5]];portConstraint=eastwest;whiteSpace=wrap;html=1;" parent="Q0Zz0vdiJcVVRRVcLZJk-24" vertex="1">
          <mxGeometry y="52" width="160" height="26" as="geometry" />
        </mxCell>
        <mxCell id="Q0Zz0vdiJcVVRRVcLZJk-28" value="+ niveli: String" style="text;strokeColor=none;fillColor=none;align=left;verticalAlign=top;spacingLeft=4;spacingRight=4;overflow=hidden;rotatable=0;points=[[0,0.5],[1,0.5]];portConstraint=eastwest;whiteSpace=wrap;html=1;" parent="Q0Zz0vdiJcVVRRVcLZJk-24" vertex="1">
          <mxGeometry y="78" width="160" height="26" as="geometry" />
        </mxCell>
        <mxCell id="Q0Zz0vdiJcVVRRVcLZJk-29" value="+ verifikimet: String" style="text;strokeColor=none;fillColor=none;align=left;verticalAlign=top;spacingLeft=4;spacingRight=4;overflow=hidden;rotatable=0;points=[[0,0.5],[1,0.5]];portConstraint=eastwest;whiteSpace=wrap;html=1;" parent="Q0Zz0vdiJcVVRRVcLZJk-24" vertex="1">
          <mxGeometry y="104" width="160" height="26" as="geometry" />
        </mxCell>
        <mxCell id="Q0Zz0vdiJcVVRRVcLZJk-30" value="+ dataFillimit: String" style="text;strokeColor=none;fillColor=none;align=left;verticalAlign=top;spacingLeft=4;spacingRight=4;overflow=hidden;rotatable=0;points=[[0,0.5],[1,0.5]];portConstraint=eastwest;whiteSpace=wrap;html=1;" parent="Q0Zz0vdiJcVVRRVcLZJk-24" vertex="1">
          <mxGeometry y="130" width="160" height="30" as="geometry" />
        </mxCell>
        <mxCell id="Q0Zz0vdiJcVVRRVcLZJk-25" value="+ dataMbarimit: String" style="text;strokeColor=none;fillColor=none;align=left;verticalAlign=top;spacingLeft=4;spacingRight=4;overflow=hidden;rotatable=0;points=[[0,0.5],[1,0.5]];portConstraint=eastwest;whiteSpace=wrap;html=1;" parent="Q0Zz0vdiJcVVRRVcLZJk-24" vertex="1">
          <mxGeometry y="160" width="160" height="26" as="geometry" />
        </mxCell>
        <mxCell id="Q0Zz0vdiJcVVRRVcLZJk-31" value="+ komenti: String" style="text;strokeColor=none;fillColor=none;align=left;verticalAlign=top;spacingLeft=4;spacingRight=4;overflow=hidden;rotatable=0;points=[[0,0.5],[1,0.5]];portConstraint=eastwest;whiteSpace=wrap;html=1;" parent="Q0Zz0vdiJcVVRRVcLZJk-24" vertex="1">
          <mxGeometry y="186" width="160" height="26" as="geometry" />
        </mxCell>
        <mxCell id="W6kSZl_nQK33wp-_uPpL-202" style="rounded=0;orthogonalLoop=1;jettySize=auto;html=1;exitX=1;exitY=0.25;exitDx=0;exitDy=0;entryX=0;entryY=0.5;entryDx=0;entryDy=0;endSize=22;endArrow=none;endFill=0;startArrow=diamondThin;startFill=1;startSize=22;edgeStyle=orthogonalEdgeStyle;" edge="1" parent="WIyWlLk6GJQsqaUBKTNV-1" source="W6kSZl_nQK33wp-_uPpL-199" target="Q0Zz0vdiJcVVRRVcLZJk-18">
          <mxGeometry relative="1" as="geometry" />
        </mxCell>
        <mxCell id="W6kSZl_nQK33wp-_uPpL-199" value="&lt;&lt;interface&gt;&gt;&#xa;Aplikanti" style="swimlane;fontStyle=0;align=center;verticalAlign=top;childLayout=stackLayout;horizontal=1;startSize=40;horizontalStack=0;resizeParent=1;resizeLast=0;collapsible=1;marginBottom=0;rounded=0;shadow=0;strokeWidth=1;" vertex="1" parent="WIyWlLk6GJQsqaUBKTNV-1">
          <mxGeometry x="-450" y="90" width="180" height="92" as="geometry">
            <mxRectangle x="130" y="380" width="160" height="26" as="alternateBounds" />
          </mxGeometry>
        </mxCell>
        <mxCell id="W6kSZl_nQK33wp-_uPpL-200" value="+ getAplikanti(): Aplikanti" style="text;align=left;verticalAlign=top;spacingLeft=4;spacingRight=4;overflow=hidden;rotatable=0;points=[[0,0.5],[1,0.5]];portConstraint=eastwest;" vertex="1" parent="W6kSZl_nQK33wp-_uPpL-199">
          <mxGeometry y="40" width="180" height="26" as="geometry" />
        </mxCell>
        <mxCell id="W6kSZl_nQK33wp-_uPpL-274" value="+ getAplikimi(): Aplikimi" style="text;align=left;verticalAlign=top;spacingLeft=4;spacingRight=4;overflow=hidden;rotatable=0;points=[[0,0.5],[1,0.5]];portConstraint=eastwest;" vertex="1" parent="W6kSZl_nQK33wp-_uPpL-199">
          <mxGeometry y="66" width="180" height="26" as="geometry" />
        </mxCell>
        <mxCell id="W6kSZl_nQK33wp-_uPpL-206" style="edgeStyle=orthogonalEdgeStyle;rounded=0;orthogonalLoop=1;jettySize=auto;html=1;exitX=0.75;exitY=0;exitDx=0;exitDy=0;entryX=0.679;entryY=0.985;entryDx=0;entryDy=0;entryPerimeter=0;startArrow=diamondThin;startFill=0;endArrow=none;endFill=0;startSize=22;" edge="1" parent="WIyWlLk6GJQsqaUBKTNV-1" source="W6kSZl_nQK33wp-_uPpL-183" target="Q0Zz0vdiJcVVRRVcLZJk-31">
          <mxGeometry relative="1" as="geometry" />
        </mxCell>
        <mxCell id="W6kSZl_nQK33wp-_uPpL-209" style="edgeStyle=orthogonalEdgeStyle;rounded=0;orthogonalLoop=1;jettySize=auto;html=1;exitX=1;exitY=0.5;exitDx=0;exitDy=0;entryX=0;entryY=0;entryDx=0;entryDy=0;endArrow=diamondThin;endFill=0;startSize=22;endSize=22;" edge="1" parent="WIyWlLk6GJQsqaUBKTNV-1" source="qlR7j_K9BmZmSB4jI-02-23" target="W6kSZl_nQK33wp-_uPpL-183">
          <mxGeometry relative="1" as="geometry" />
        </mxCell>
        <mxCell id="W6kSZl_nQK33wp-_uPpL-210" style="edgeStyle=orthogonalEdgeStyle;rounded=0;orthogonalLoop=1;jettySize=auto;html=1;exitX=1;exitY=0.5;exitDx=0;exitDy=0;entryX=0;entryY=0.5;entryDx=0;entryDy=0;endArrow=diamondThin;endFill=1;endSize=22;" edge="1" parent="WIyWlLk6GJQsqaUBKTNV-1" source="qlR7j_K9BmZmSB4jI-02-42" target="W6kSZl_nQK33wp-_uPpL-184">
          <mxGeometry relative="1" as="geometry" />
        </mxCell>
        <mxCell id="W6kSZl_nQK33wp-_uPpL-212" style="rounded=0;orthogonalLoop=1;jettySize=auto;html=1;exitX=0.5;exitY=0;exitDx=0;exitDy=0;entryX=0.816;entryY=1;entryDx=0;entryDy=0;entryPerimeter=0;endArrow=none;endFill=0;endSize=22;startArrow=diamondThin;startFill=0;startSize=22;" edge="1" parent="WIyWlLk6GJQsqaUBKTNV-1" source="W6kSZl_nQK33wp-_uPpL-183" target="Q0Zz0vdiJcVVRRVcLZJk-15">
          <mxGeometry relative="1" as="geometry" />
        </mxCell>
        <mxCell id="W6kSZl_nQK33wp-_uPpL-215" value="" style="shape=folder;fontStyle=1;spacingTop=10;tabWidth=130;tabHeight=30;tabPosition=left;html=1;whiteSpace=wrap;" vertex="1" parent="WIyWlLk6GJQsqaUBKTNV-1">
          <mxGeometry x="250" y="-460" width="760" height="490" as="geometry" />
        </mxCell>
        <mxCell id="W6kSZl_nQK33wp-_uPpL-216" value="JobPosting" style="text;html=1;strokeColor=none;fillColor=none;align=center;verticalAlign=middle;whiteSpace=wrap;rounded=0;" vertex="1" parent="WIyWlLk6GJQsqaUBKTNV-1">
          <mxGeometry x="288" y="-460" width="60" height="30" as="geometry" />
        </mxCell>
        <mxCell id="W6kSZl_nQK33wp-_uPpL-226" style="edgeStyle=orthogonalEdgeStyle;rounded=0;orthogonalLoop=1;jettySize=auto;html=1;exitX=0.5;exitY=0;exitDx=0;exitDy=0;entryX=0.566;entryY=1.027;entryDx=0;entryDy=0;entryPerimeter=0;endArrow=diamondThin;endFill=0;startSize=22;endSize=22;" edge="1" parent="WIyWlLk6GJQsqaUBKTNV-1" source="qlR7j_K9BmZmSB4jI-02-33" target="W6kSZl_nQK33wp-_uPpL-225">
          <mxGeometry relative="1" as="geometry" />
        </mxCell>
        <mxCell id="W6kSZl_nQK33wp-_uPpL-227" style="edgeStyle=orthogonalEdgeStyle;rounded=0;orthogonalLoop=1;jettySize=auto;html=1;exitX=1;exitY=0;exitDx=0;exitDy=0;entryX=0;entryY=0.862;entryDx=0;entryDy=0;entryPerimeter=0;endArrow=none;endFill=0;" edge="1" parent="WIyWlLk6GJQsqaUBKTNV-1" source="Q0Zz0vdiJcVVRRVcLZJk-16" target="W6kSZl_nQK33wp-_uPpL-225">
          <mxGeometry relative="1" as="geometry" />
        </mxCell>
        <mxCell id="W6kSZl_nQK33wp-_uPpL-228" style="edgeStyle=orthogonalEdgeStyle;rounded=0;orthogonalLoop=1;jettySize=auto;html=1;exitX=1;exitY=0.5;exitDx=0;exitDy=0;entryX=0;entryY=0.5;entryDx=0;entryDy=0;endArrow=diamondThin;endFill=1;startSize=22;endSize=22;" edge="1" parent="WIyWlLk6GJQsqaUBKTNV-1" source="qlR7j_K9BmZmSB4jI-02-29" target="W6kSZl_nQK33wp-_uPpL-223">
          <mxGeometry relative="1" as="geometry" />
        </mxCell>
        <mxCell id="W6kSZl_nQK33wp-_uPpL-283" style="edgeStyle=orthogonalEdgeStyle;rounded=0;orthogonalLoop=1;jettySize=auto;html=1;exitX=1;exitY=0;exitDx=0;exitDy=0;entryX=0;entryY=0;entryDx=0;entryDy=0;dashed=1;endArrow=open;endFill=0;endSize=10;" edge="1" parent="WIyWlLk6GJQsqaUBKTNV-1" source="W6kSZl_nQK33wp-_uPpL-232" target="W6kSZl_nQK33wp-_uPpL-281">
          <mxGeometry relative="1" as="geometry">
            <Array as="points">
              <mxPoint x="827" y="-150" />
            </Array>
          </mxGeometry>
        </mxCell>
        <mxCell id="W6kSZl_nQK33wp-_uPpL-232" value="Punet" style="swimlane;fontStyle=0;align=center;verticalAlign=top;childLayout=stackLayout;horizontal=1;startSize=26;horizontalStack=0;resizeParent=1;resizeLast=0;collapsible=1;marginBottom=0;rounded=0;shadow=0;strokeWidth=1;" vertex="1" parent="WIyWlLk6GJQsqaUBKTNV-1">
          <mxGeometry x="510" y="-149" width="160" height="130" as="geometry">
            <mxRectangle x="720" y="-1324" width="160" height="26" as="alternateBounds" />
          </mxGeometry>
        </mxCell>
        <mxCell id="W6kSZl_nQK33wp-_uPpL-233" value="+ emri: String" style="text;align=left;verticalAlign=top;spacingLeft=4;spacingRight=4;overflow=hidden;rotatable=0;points=[[0,0.5],[1,0.5]];portConstraint=eastwest;" vertex="1" parent="W6kSZl_nQK33wp-_uPpL-232">
          <mxGeometry y="26" width="160" height="26" as="geometry" />
        </mxCell>
        <mxCell id="W6kSZl_nQK33wp-_uPpL-234" value="+ numriPunetoreve: String" style="text;align=left;verticalAlign=top;spacingLeft=4;spacingRight=4;overflow=hidden;rotatable=0;points=[[0,0.5],[1,0.5]];portConstraint=eastwest;fontStyle=4" vertex="1" parent="W6kSZl_nQK33wp-_uPpL-232">
          <mxGeometry y="52" width="160" height="26" as="geometry" />
        </mxCell>
        <mxCell id="W6kSZl_nQK33wp-_uPpL-235" value="+ shumaTotale: int" style="text;align=left;verticalAlign=top;spacingLeft=4;spacingRight=4;overflow=hidden;rotatable=0;points=[[0,0.5],[1,0.5]];portConstraint=eastwest;rounded=0;shadow=0;html=0;" vertex="1" parent="W6kSZl_nQK33wp-_uPpL-232">
          <mxGeometry y="78" width="160" height="26" as="geometry" />
        </mxCell>
        <mxCell id="W6kSZl_nQK33wp-_uPpL-260" value="+ setPune(): String" style="text;align=left;verticalAlign=top;spacingLeft=4;spacingRight=4;overflow=hidden;rotatable=0;points=[[0,0.5],[1,0.5]];portConstraint=eastwest;rounded=0;shadow=0;html=0;" vertex="1" parent="W6kSZl_nQK33wp-_uPpL-232">
          <mxGeometry y="104" width="160" height="26" as="geometry" />
        </mxCell>
        <mxCell id="W6kSZl_nQK33wp-_uPpL-236" value="Kompania" style="swimlane;fontStyle=0;childLayout=stackLayout;horizontal=1;startSize=26;fillColor=none;horizontalStack=0;resizeParent=1;resizeParentMax=0;resizeLast=0;collapsible=1;marginBottom=0;whiteSpace=wrap;html=1;" vertex="1" parent="WIyWlLk6GJQsqaUBKTNV-1">
          <mxGeometry x="528.75" y="-398" width="160" height="212" as="geometry" />
        </mxCell>
        <mxCell id="W6kSZl_nQK33wp-_uPpL-237" value="+&amp;nbsp;emri: String" style="text;strokeColor=none;fillColor=none;align=left;verticalAlign=top;spacingLeft=4;spacingRight=4;overflow=hidden;rotatable=0;points=[[0,0.5],[1,0.5]];portConstraint=eastwest;whiteSpace=wrap;html=1;" vertex="1" parent="W6kSZl_nQK33wp-_uPpL-236">
          <mxGeometry y="26" width="160" height="26" as="geometry" />
        </mxCell>
        <mxCell id="W6kSZl_nQK33wp-_uPpL-238" value="+ tipi: String" style="text;strokeColor=none;fillColor=none;align=left;verticalAlign=top;spacingLeft=4;spacingRight=4;overflow=hidden;rotatable=0;points=[[0,0.5],[1,0.5]];portConstraint=eastwest;whiteSpace=wrap;html=1;" vertex="1" parent="W6kSZl_nQK33wp-_uPpL-236">
          <mxGeometry y="52" width="160" height="26" as="geometry" />
        </mxCell>
        <mxCell id="W6kSZl_nQK33wp-_uPpL-239" value="+ staffi: String" style="text;strokeColor=none;fillColor=none;align=left;verticalAlign=top;spacingLeft=4;spacingRight=4;overflow=hidden;rotatable=0;points=[[0,0.5],[1,0.5]];portConstraint=eastwest;whiteSpace=wrap;html=1;" vertex="1" parent="W6kSZl_nQK33wp-_uPpL-236">
          <mxGeometry y="78" width="160" height="26" as="geometry" />
        </mxCell>
        <mxCell id="W6kSZl_nQK33wp-_uPpL-240" value="+ info: String" style="text;strokeColor=none;fillColor=none;align=left;verticalAlign=top;spacingLeft=4;spacingRight=4;overflow=hidden;rotatable=0;points=[[0,0.5],[1,0.5]];portConstraint=eastwest;whiteSpace=wrap;html=1;" vertex="1" parent="W6kSZl_nQK33wp-_uPpL-236">
          <mxGeometry y="104" width="160" height="26" as="geometry" />
        </mxCell>
        <mxCell id="W6kSZl_nQK33wp-_uPpL-241" value="+ puneTeHapura: String" style="text;strokeColor=none;fillColor=none;align=left;verticalAlign=top;spacingLeft=4;spacingRight=4;overflow=hidden;rotatable=0;points=[[0,0.5],[1,0.5]];portConstraint=eastwest;whiteSpace=wrap;html=1;" vertex="1" parent="W6kSZl_nQK33wp-_uPpL-236">
          <mxGeometry y="130" width="160" height="26" as="geometry" />
        </mxCell>
        <mxCell id="W6kSZl_nQK33wp-_uPpL-242" value="+ dataHapjes: String" style="text;strokeColor=none;fillColor=none;align=left;verticalAlign=top;spacingLeft=4;spacingRight=4;overflow=hidden;rotatable=0;points=[[0,0.5],[1,0.5]];portConstraint=eastwest;whiteSpace=wrap;html=1;" vertex="1" parent="W6kSZl_nQK33wp-_uPpL-236">
          <mxGeometry y="156" width="160" height="30" as="geometry" />
        </mxCell>
        <mxCell id="W6kSZl_nQK33wp-_uPpL-243" value="+ komentet: String" style="text;strokeColor=none;fillColor=none;align=left;verticalAlign=top;spacingLeft=4;spacingRight=4;overflow=hidden;rotatable=0;points=[[0,0.5],[1,0.5]];portConstraint=eastwest;whiteSpace=wrap;html=1;" vertex="1" parent="W6kSZl_nQK33wp-_uPpL-236">
          <mxGeometry y="186" width="160" height="26" as="geometry" />
        </mxCell>
        <mxCell id="W6kSZl_nQK33wp-_uPpL-244" value="Njoftimi" style="swimlane;fontStyle=0;childLayout=stackLayout;horizontal=1;startSize=26;fillColor=none;horizontalStack=0;resizeParent=1;resizeParentMax=0;resizeLast=0;collapsible=1;marginBottom=0;whiteSpace=wrap;html=1;" vertex="1" parent="WIyWlLk6GJQsqaUBKTNV-1">
          <mxGeometry x="730" y="-398" width="210" height="182" as="geometry" />
        </mxCell>
        <mxCell id="W6kSZl_nQK33wp-_uPpL-245" value="+&amp;nbsp;emri: String" style="text;strokeColor=none;fillColor=none;align=left;verticalAlign=top;spacingLeft=4;spacingRight=4;overflow=hidden;rotatable=0;points=[[0,0.5],[1,0.5]];portConstraint=eastwest;whiteSpace=wrap;html=1;" vertex="1" parent="W6kSZl_nQK33wp-_uPpL-244">
          <mxGeometry y="26" width="210" height="26" as="geometry" />
        </mxCell>
        <mxCell id="W6kSZl_nQK33wp-_uPpL-246" value="+ tipi: String" style="text;strokeColor=none;fillColor=none;align=left;verticalAlign=top;spacingLeft=4;spacingRight=4;overflow=hidden;rotatable=0;points=[[0,0.5],[1,0.5]];portConstraint=eastwest;whiteSpace=wrap;html=1;" vertex="1" parent="W6kSZl_nQK33wp-_uPpL-244">
          <mxGeometry y="52" width="210" height="26" as="geometry" />
        </mxCell>
        <mxCell id="W6kSZl_nQK33wp-_uPpL-247" value="+ email: String" style="text;strokeColor=none;fillColor=none;align=left;verticalAlign=top;spacingLeft=4;spacingRight=4;overflow=hidden;rotatable=0;points=[[0,0.5],[1,0.5]];portConstraint=eastwest;whiteSpace=wrap;html=1;" vertex="1" parent="W6kSZl_nQK33wp-_uPpL-244">
          <mxGeometry y="78" width="210" height="26" as="geometry" />
        </mxCell>
        <mxCell id="W6kSZl_nQK33wp-_uPpL-248" value="+ permbajtja: String" style="text;strokeColor=none;fillColor=none;align=left;verticalAlign=top;spacingLeft=4;spacingRight=4;overflow=hidden;rotatable=0;points=[[0,0.5],[1,0.5]];portConstraint=eastwest;whiteSpace=wrap;html=1;" vertex="1" parent="W6kSZl_nQK33wp-_uPpL-244">
          <mxGeometry y="104" width="210" height="26" as="geometry" />
        </mxCell>
        <mxCell id="W6kSZl_nQK33wp-_uPpL-249" value="+ dataDergimit: String" style="text;strokeColor=none;fillColor=none;align=left;verticalAlign=top;spacingLeft=4;spacingRight=4;overflow=hidden;rotatable=0;points=[[0,0.5],[1,0.5]];portConstraint=eastwest;whiteSpace=wrap;html=1;" vertex="1" parent="W6kSZl_nQK33wp-_uPpL-244">
          <mxGeometry y="130" width="210" height="26" as="geometry" />
        </mxCell>
        <mxCell id="W6kSZl_nQK33wp-_uPpL-262" value="+ sendNotification(Aplikanti): String" style="text;strokeColor=none;fillColor=none;align=left;verticalAlign=top;spacingLeft=4;spacingRight=4;overflow=hidden;rotatable=0;points=[[0,0.5],[1,0.5]];portConstraint=eastwest;whiteSpace=wrap;html=1;" vertex="1" parent="W6kSZl_nQK33wp-_uPpL-244">
          <mxGeometry y="156" width="210" height="26" as="geometry" />
        </mxCell>
        <mxCell id="W6kSZl_nQK33wp-_uPpL-250" value="PozitaPunes" style="swimlane;fontStyle=0;childLayout=stackLayout;horizontal=1;startSize=26;fillColor=none;horizontalStack=0;resizeParent=1;resizeParentMax=0;resizeLast=0;collapsible=1;marginBottom=0;whiteSpace=wrap;html=1;" vertex="1" parent="WIyWlLk6GJQsqaUBKTNV-1">
          <mxGeometry x="310" y="-288" width="177.75" height="154" as="geometry" />
        </mxCell>
        <mxCell id="W6kSZl_nQK33wp-_uPpL-251" value="+&amp;nbsp;emriPozites: String" style="text;strokeColor=none;fillColor=none;align=left;verticalAlign=top;spacingLeft=4;spacingRight=4;overflow=hidden;rotatable=0;points=[[0,0.5],[1,0.5]];portConstraint=eastwest;whiteSpace=wrap;html=1;" vertex="1" parent="W6kSZl_nQK33wp-_uPpL-250">
          <mxGeometry y="26" width="177.75" height="24" as="geometry" />
        </mxCell>
        <mxCell id="W6kSZl_nQK33wp-_uPpL-252" value="+&amp;nbsp;pershkrimi: String" style="text;strokeColor=none;fillColor=none;align=left;verticalAlign=top;spacingLeft=4;spacingRight=4;overflow=hidden;rotatable=0;points=[[0,0.5],[1,0.5]];portConstraint=eastwest;whiteSpace=wrap;html=1;" vertex="1" parent="W6kSZl_nQK33wp-_uPpL-250">
          <mxGeometry y="50" width="177.75" height="26" as="geometry" />
        </mxCell>
        <mxCell id="W6kSZl_nQK33wp-_uPpL-253" value="+&amp;nbsp;kerkesat: String" style="text;strokeColor=none;fillColor=none;align=left;verticalAlign=top;spacingLeft=4;spacingRight=4;overflow=hidden;rotatable=0;points=[[0,0.5],[1,0.5]];portConstraint=eastwest;whiteSpace=wrap;html=1;" vertex="1" parent="W6kSZl_nQK33wp-_uPpL-250">
          <mxGeometry y="76" width="177.75" height="26" as="geometry" />
        </mxCell>
        <mxCell id="W6kSZl_nQK33wp-_uPpL-254" value="+ pozitaPunes: String" style="text;strokeColor=none;fillColor=none;align=left;verticalAlign=top;spacingLeft=4;spacingRight=4;overflow=hidden;rotatable=0;points=[[0,0.5],[1,0.5]];portConstraint=eastwest;whiteSpace=wrap;html=1;" vertex="1" parent="W6kSZl_nQK33wp-_uPpL-250">
          <mxGeometry y="102" width="177.75" height="26" as="geometry" />
        </mxCell>
        <mxCell id="W6kSZl_nQK33wp-_uPpL-280" value="+ setPozitaPunes: Punet" style="text;strokeColor=none;fillColor=none;align=left;verticalAlign=top;spacingLeft=4;spacingRight=4;overflow=hidden;rotatable=0;points=[[0,0.5],[1,0.5]];portConstraint=eastwest;whiteSpace=wrap;html=1;" vertex="1" parent="W6kSZl_nQK33wp-_uPpL-250">
          <mxGeometry y="128" width="177.75" height="26" as="geometry" />
        </mxCell>
        <mxCell id="W6kSZl_nQK33wp-_uPpL-269" style="edgeStyle=orthogonalEdgeStyle;rounded=0;orthogonalLoop=1;jettySize=auto;html=1;exitX=0;exitY=0;exitDx=0;exitDy=0;endArrow=none;endFill=0;" edge="1" parent="WIyWlLk6GJQsqaUBKTNV-1" source="W6kSZl_nQK33wp-_uPpL-255">
          <mxGeometry relative="1" as="geometry">
            <mxPoint x="330" y="-330" as="targetPoint" />
            <Array as="points">
              <mxPoint x="280" y="-104" />
              <mxPoint x="280" y="-330" />
            </Array>
          </mxGeometry>
        </mxCell>
        <mxCell id="W6kSZl_nQK33wp-_uPpL-255" value="KontaktetNdihmesIT" style="swimlane;fontStyle=0;childLayout=stackLayout;horizontal=1;startSize=26;fillColor=none;horizontalStack=0;resizeParent=1;resizeParentMax=0;resizeLast=0;collapsible=1;marginBottom=0;whiteSpace=wrap;html=1;" vertex="1" parent="WIyWlLk6GJQsqaUBKTNV-1">
          <mxGeometry x="318.75" y="-104" width="160" height="104" as="geometry" />
        </mxCell>
        <mxCell id="W6kSZl_nQK33wp-_uPpL-256" value="+&amp;nbsp;ndihmaTeknike: String" style="text;strokeColor=none;fillColor=none;align=left;verticalAlign=top;spacingLeft=4;spacingRight=4;overflow=hidden;rotatable=0;points=[[0,0.5],[1,0.5]];portConstraint=eastwest;whiteSpace=wrap;html=1;" vertex="1" parent="W6kSZl_nQK33wp-_uPpL-255">
          <mxGeometry y="26" width="160" height="26" as="geometry" />
        </mxCell>
        <mxCell id="W6kSZl_nQK33wp-_uPpL-257" value="+&amp;nbsp;kontakti: String" style="text;strokeColor=none;fillColor=none;align=left;verticalAlign=top;spacingLeft=4;spacingRight=4;overflow=hidden;rotatable=0;points=[[0,0.5],[1,0.5]];portConstraint=eastwest;whiteSpace=wrap;html=1;" vertex="1" parent="W6kSZl_nQK33wp-_uPpL-255">
          <mxGeometry y="52" width="160" height="26" as="geometry" />
        </mxCell>
        <mxCell id="W6kSZl_nQK33wp-_uPpL-261" value="+ setKontNdihmes(): String" style="text;strokeColor=none;fillColor=none;align=left;verticalAlign=top;spacingLeft=4;spacingRight=4;overflow=hidden;rotatable=0;points=[[0,0.5],[1,0.5]];portConstraint=eastwest;whiteSpace=wrap;html=1;" vertex="1" parent="W6kSZl_nQK33wp-_uPpL-255">
          <mxGeometry y="78" width="160" height="26" as="geometry" />
        </mxCell>
        <mxCell id="W6kSZl_nQK33wp-_uPpL-277" style="rounded=0;orthogonalLoop=1;jettySize=auto;html=1;exitX=0.75;exitY=1;exitDx=0;exitDy=0;entryX=0.75;entryY=0;entryDx=0;entryDy=0;endArrow=none;endFill=0;startArrow=diamondThin;startFill=1;startSize=17;" edge="1" parent="WIyWlLk6GJQsqaUBKTNV-1" source="W6kSZl_nQK33wp-_uPpL-258" target="W6kSZl_nQK33wp-_uPpL-250">
          <mxGeometry relative="1" as="geometry" />
        </mxCell>
        <mxCell id="W6kSZl_nQK33wp-_uPpL-258" value="&lt;&lt;interface&gt;&gt;&#xa;Rekrutuesi" style="swimlane;fontStyle=0;align=center;verticalAlign=top;childLayout=stackLayout;horizontal=1;startSize=40;horizontalStack=0;resizeParent=1;resizeLast=0;collapsible=1;marginBottom=0;rounded=0;shadow=0;strokeWidth=1;" vertex="1" parent="WIyWlLk6GJQsqaUBKTNV-1">
          <mxGeometry x="314" y="-398" width="180" height="70" as="geometry">
            <mxRectangle x="130" y="380" width="160" height="26" as="alternateBounds" />
          </mxGeometry>
        </mxCell>
        <mxCell id="W6kSZl_nQK33wp-_uPpL-259" value="+ getRekrutuesi(): Rekrutuesi" style="text;align=left;verticalAlign=top;spacingLeft=4;spacingRight=4;overflow=hidden;rotatable=0;points=[[0,0.5],[1,0.5]];portConstraint=eastwest;" vertex="1" parent="W6kSZl_nQK33wp-_uPpL-258">
          <mxGeometry y="40" width="180" height="26" as="geometry" />
        </mxCell>
        <mxCell id="W6kSZl_nQK33wp-_uPpL-264" value="&lt;&lt;interface&gt;&gt;&#xa;Aplikanti" style="swimlane;fontStyle=0;align=center;verticalAlign=top;childLayout=stackLayout;horizontal=1;startSize=40;horizontalStack=0;resizeParent=1;resizeLast=0;collapsible=1;marginBottom=0;rounded=0;shadow=0;strokeWidth=1;" vertex="1" parent="WIyWlLk6GJQsqaUBKTNV-1">
          <mxGeometry x="694" y="-60" width="180" height="70" as="geometry">
            <mxRectangle x="130" y="380" width="160" height="26" as="alternateBounds" />
          </mxGeometry>
        </mxCell>
        <mxCell id="W6kSZl_nQK33wp-_uPpL-265" value="+ getAplikanti(): Aplikanti" style="text;align=left;verticalAlign=top;spacingLeft=4;spacingRight=4;overflow=hidden;rotatable=0;points=[[0,0.5],[1,0.5]];portConstraint=eastwest;" vertex="1" parent="W6kSZl_nQK33wp-_uPpL-264">
          <mxGeometry y="40" width="180" height="26" as="geometry" />
        </mxCell>
        <mxCell id="W6kSZl_nQK33wp-_uPpL-268" style="edgeStyle=orthogonalEdgeStyle;rounded=0;orthogonalLoop=1;jettySize=auto;html=1;exitX=0.25;exitY=0;exitDx=0;exitDy=0;entryX=0.092;entryY=0.964;entryDx=0;entryDy=0;entryPerimeter=0;startArrow=open;startFill=0;dashed=1;endArrow=none;endFill=0;startSize=10;" edge="1" parent="WIyWlLk6GJQsqaUBKTNV-1" source="W6kSZl_nQK33wp-_uPpL-264" target="W6kSZl_nQK33wp-_uPpL-262">
          <mxGeometry relative="1" as="geometry" />
        </mxCell>
        <mxCell id="W6kSZl_nQK33wp-_uPpL-271" style="edgeStyle=orthogonalEdgeStyle;rounded=0;orthogonalLoop=1;jettySize=auto;html=1;exitX=1;exitY=0.5;exitDx=0;exitDy=0;entryX=0;entryY=0.5;entryDx=0;entryDy=0;endArrow=diamondThin;endFill=1;endSize=17;" edge="1" parent="WIyWlLk6GJQsqaUBKTNV-1" source="W6kSZl_nQK33wp-_uPpL-254" target="W6kSZl_nQK33wp-_uPpL-233">
          <mxGeometry relative="1" as="geometry">
            <Array as="points">
              <mxPoint x="490" y="-173" />
              <mxPoint x="490" y="-110" />
            </Array>
          </mxGeometry>
        </mxCell>
        <mxCell id="W6kSZl_nQK33wp-_uPpL-272" style="edgeStyle=orthogonalEdgeStyle;rounded=0;orthogonalLoop=1;jettySize=auto;html=1;exitX=1;exitY=0.5;exitDx=0;exitDy=0;entryX=1.025;entryY=0.238;entryDx=0;entryDy=0;entryPerimeter=0;endArrow=open;endFill=0;dashed=1;endSize=10;" edge="1" parent="WIyWlLk6GJQsqaUBKTNV-1" source="W6kSZl_nQK33wp-_uPpL-243" target="W6kSZl_nQK33wp-_uPpL-234">
          <mxGeometry relative="1" as="geometry" />
        </mxCell>
        <mxCell id="W6kSZl_nQK33wp-_uPpL-273" style="edgeStyle=orthogonalEdgeStyle;rounded=0;orthogonalLoop=1;jettySize=auto;html=1;exitX=1;exitY=0.5;exitDx=0;exitDy=0;entryX=0.76;entryY=1.145;entryDx=0;entryDy=0;entryPerimeter=0;startArrow=open;startFill=0;endArrow=none;endFill=0;dashed=1;startSize=10;" edge="1" parent="WIyWlLk6GJQsqaUBKTNV-1" source="W6kSZl_nQK33wp-_uPpL-253" target="W6kSZl_nQK33wp-_uPpL-262">
          <mxGeometry relative="1" as="geometry">
            <Array as="points">
              <mxPoint x="510" y="-199" />
              <mxPoint x="510" y="-170" />
              <mxPoint x="890" y="-170" />
            </Array>
          </mxGeometry>
        </mxCell>
        <mxCell id="W6kSZl_nQK33wp-_uPpL-275" style="edgeStyle=orthogonalEdgeStyle;rounded=0;orthogonalLoop=1;jettySize=auto;html=1;exitX=0;exitY=0.5;exitDx=0;exitDy=0;entryX=1;entryY=0;entryDx=0;entryDy=0;endArrow=diamondThin;endFill=0;endSize=22;startSize=10;" edge="1" parent="WIyWlLk6GJQsqaUBKTNV-1" source="W6kSZl_nQK33wp-_uPpL-229" target="W6kSZl_nQK33wp-_uPpL-199">
          <mxGeometry relative="1" as="geometry">
            <Array as="points">
              <mxPoint x="-132" y="72" />
              <mxPoint x="-132" y="60" />
              <mxPoint x="-270" y="60" />
            </Array>
          </mxGeometry>
        </mxCell>
        <mxCell id="W6kSZl_nQK33wp-_uPpL-278" value="Krijon" style="text;html=1;strokeColor=none;fillColor=none;align=center;verticalAlign=middle;whiteSpace=wrap;rounded=0;" vertex="1" parent="WIyWlLk6GJQsqaUBKTNV-1">
          <mxGeometry x="391.75" y="-322" width="60" height="30" as="geometry" />
        </mxCell>
        <mxCell id="W6kSZl_nQK33wp-_uPpL-279" value="Dergohet" style="text;html=1;strokeColor=none;fillColor=none;align=center;verticalAlign=middle;whiteSpace=wrap;rounded=0;" vertex="1" parent="WIyWlLk6GJQsqaUBKTNV-1">
          <mxGeometry x="740" y="-134" width="60" height="30" as="geometry" />
        </mxCell>
        <mxCell id="W6kSZl_nQK33wp-_uPpL-281" value="&lt;&lt;interface&gt;&gt;&#xa;Admin" style="swimlane;fontStyle=0;align=center;verticalAlign=top;childLayout=stackLayout;horizontal=1;startSize=40;horizontalStack=0;resizeParent=1;resizeLast=0;collapsible=1;marginBottom=0;rounded=0;shadow=0;strokeWidth=1;" vertex="1" parent="WIyWlLk6GJQsqaUBKTNV-1">
          <mxGeometry x="850" y="-156" width="147" height="70" as="geometry">
            <mxRectangle x="130" y="380" width="160" height="26" as="alternateBounds" />
          </mxGeometry>
        </mxCell>
        <mxCell id="W6kSZl_nQK33wp-_uPpL-282" value="+ getAdimin(): Admin" style="text;align=left;verticalAlign=top;spacingLeft=4;spacingRight=4;overflow=hidden;rotatable=0;points=[[0,0.5],[1,0.5]];portConstraint=eastwest;" vertex="1" parent="W6kSZl_nQK33wp-_uPpL-281">
          <mxGeometry y="40" width="147" height="26" as="geometry" />
        </mxCell>
        <mxCell id="W6kSZl_nQK33wp-_uPpL-284" value="Admin" style="swimlane;fontStyle=0;childLayout=stackLayout;horizontal=1;startSize=26;fillColor=none;horizontalStack=0;resizeParent=1;resizeParentMax=0;resizeLast=0;collapsible=1;marginBottom=0;whiteSpace=wrap;html=1;" vertex="1" parent="WIyWlLk6GJQsqaUBKTNV-1">
          <mxGeometry x="1428" y="-992" width="162" height="156" as="geometry" />
        </mxCell>
        <mxCell id="W6kSZl_nQK33wp-_uPpL-285" value="+ getEmri(): Perdoruesi" style="text;strokeColor=none;fillColor=none;align=left;verticalAlign=top;spacingLeft=4;spacingRight=4;overflow=hidden;rotatable=0;points=[[0,0.5],[1,0.5]];portConstraint=eastwest;whiteSpace=wrap;html=1;" vertex="1" parent="W6kSZl_nQK33wp-_uPpL-284">
          <mxGeometry y="26" width="162" height="26" as="geometry" />
        </mxCell>
        <mxCell id="W6kSZl_nQK33wp-_uPpL-286" value="+ getMbiemri(): Perdoruesi" style="text;strokeColor=none;fillColor=none;align=left;verticalAlign=top;spacingLeft=4;spacingRight=4;overflow=hidden;rotatable=0;points=[[0,0.5],[1,0.5]];portConstraint=eastwest;whiteSpace=wrap;html=1;" vertex="1" parent="W6kSZl_nQK33wp-_uPpL-284">
          <mxGeometry y="52" width="162" height="26" as="geometry" />
        </mxCell>
        <mxCell id="W6kSZl_nQK33wp-_uPpL-287" value="+ setAdresa(): String" style="text;strokeColor=none;fillColor=none;align=left;verticalAlign=top;spacingLeft=4;spacingRight=4;overflow=hidden;rotatable=0;points=[[0,0.5],[1,0.5]];portConstraint=eastwest;whiteSpace=wrap;html=1;" vertex="1" parent="W6kSZl_nQK33wp-_uPpL-284">
          <mxGeometry y="78" width="162" height="26" as="geometry" />
        </mxCell>
        <mxCell id="W6kSZl_nQK33wp-_uPpL-288" value="+ setKontaktet(): String" style="text;strokeColor=none;fillColor=none;align=left;verticalAlign=top;spacingLeft=4;spacingRight=4;overflow=hidden;rotatable=0;points=[[0,0.5],[1,0.5]];portConstraint=eastwest;whiteSpace=wrap;html=1;" vertex="1" parent="W6kSZl_nQK33wp-_uPpL-284">
          <mxGeometry y="104" width="162" height="26" as="geometry" />
        </mxCell>
        <mxCell id="W6kSZl_nQK33wp-_uPpL-293" value="+ setLejjimi(): ShfaqLejimi" style="text;strokeColor=none;fillColor=none;align=left;verticalAlign=top;spacingLeft=4;spacingRight=4;overflow=hidden;rotatable=0;points=[[0,0.5],[1,0.5]];portConstraint=eastwest;whiteSpace=wrap;html=1;" vertex="1" parent="W6kSZl_nQK33wp-_uPpL-284">
          <mxGeometry y="130" width="162" height="26" as="geometry" />
        </mxCell>
        <mxCell id="W6kSZl_nQK33wp-_uPpL-294" style="edgeStyle=orthogonalEdgeStyle;rounded=0;orthogonalLoop=1;jettySize=auto;html=1;exitX=0.25;exitY=0;exitDx=0;exitDy=0;entryX=0.938;entryY=1.016;entryDx=0;entryDy=0;entryPerimeter=0;endArrow=block;endFill=0;endSize=12;" edge="1" parent="WIyWlLk6GJQsqaUBKTNV-1" source="W6kSZl_nQK33wp-_uPpL-284" target="W6kSZl_nQK33wp-_uPpL-36">
          <mxGeometry relative="1" as="geometry">
            <Array as="points">
              <mxPoint x="1469" y="-1010" />
              <mxPoint x="1370" y="-1010" />
              <mxPoint x="1370" y="-1081" />
              <mxPoint x="1330" y="-1081" />
            </Array>
          </mxGeometry>
        </mxCell>
        <mxCell id="W6kSZl_nQK33wp-_uPpL-295" value="&lt;&lt;interface&gt;&gt;&#xa;ShfaqLejimi" style="swimlane;fontStyle=0;align=center;verticalAlign=top;childLayout=stackLayout;horizontal=1;startSize=40;horizontalStack=0;resizeParent=1;resizeLast=0;collapsible=1;marginBottom=0;rounded=0;shadow=0;strokeWidth=1;" vertex="1" parent="WIyWlLk6GJQsqaUBKTNV-1">
          <mxGeometry x="1418" y="-777" width="180" height="92" as="geometry">
            <mxRectangle x="130" y="380" width="160" height="26" as="alternateBounds" />
          </mxGeometry>
        </mxCell>
        <mxCell id="W6kSZl_nQK33wp-_uPpL-296" value="+ getLejimi(): Lejimi" style="text;align=left;verticalAlign=top;spacingLeft=4;spacingRight=4;overflow=hidden;rotatable=0;points=[[0,0.5],[1,0.5]];portConstraint=eastwest;" vertex="1" parent="W6kSZl_nQK33wp-_uPpL-295">
          <mxGeometry y="40" width="180" height="26" as="geometry" />
        </mxCell>
        <mxCell id="W6kSZl_nQK33wp-_uPpL-297" value="+ setLejimi(): Lejimi" style="text;align=left;verticalAlign=top;spacingLeft=4;spacingRight=4;overflow=hidden;rotatable=0;points=[[0,0.5],[1,0.5]];portConstraint=eastwest;" vertex="1" parent="W6kSZl_nQK33wp-_uPpL-295">
          <mxGeometry y="66" width="180" height="26" as="geometry" />
        </mxCell>
        <mxCell id="W6kSZl_nQK33wp-_uPpL-298" style="edgeStyle=orthogonalEdgeStyle;rounded=0;orthogonalLoop=1;jettySize=auto;html=1;exitX=0;exitY=0.5;exitDx=0;exitDy=0;entryX=0.25;entryY=0;entryDx=0;entryDy=0;dashed=1;endArrow=open;endFill=0;endSize=10;" edge="1" parent="WIyWlLk6GJQsqaUBKTNV-1" source="W6kSZl_nQK33wp-_uPpL-293" target="W6kSZl_nQK33wp-_uPpL-295">
          <mxGeometry relative="1" as="geometry">
            <Array as="points">
              <mxPoint x="1420" y="-849" />
              <mxPoint x="1420" y="-806" />
              <mxPoint x="1463" y="-806" />
            </Array>
          </mxGeometry>
        </mxCell>
      </root>
    </mxGraphModel>
  </diagram>
</mxfile>
